<svg xmlns="http://www.w3.org/2000/svg"
     viewBox="0 0 26.458333 7.9375"
     role="img"
     aria-labelledby="title">
  <title id="title">Chaturbate</title>

  <defs>
    <filter id="neonGlow" x="-20%" y="-30%" width="140%" height="160%">
      <feGaussianBlur stdDeviation="0.07" result="blur1"/>
      <feGaussianBlur stdDeviation="0.16" in="SourceGraphic" result="blur2"/>
      <feMerge>
        <feMergeNode in="blur2"/>
        <feMergeNode in="blur1"/>
        <feMergeNode in="SourceGraphic"/>
      </feMerge>
    </filter>
  </defs>

  <g fill="none"
     stroke-linecap="round"
     stroke-linejoin="round"
     vector-effect="non-scaling-stroke">

    <!-- Soft outer neon haze -->
    <g stroke="#ff3f9f"
       stroke-width="0.075"
       opacity="0.28"
       filter="url(#neonGlow)">
      <path transform="matrix(0.01719996,0,0,0.01767501,-0.31847685,-9.4730566)"
            d="m 308.76925,563.06198 c -24.31,-0.13001 -48.04042,9.59957 -66.52042,25.14957 -24.69,20.61 -47.62823,41.55112 -57.78823,71.73112 -26.52,-6.25 -43.39187,-11.91249 -61.04187,-33.20249 -13.2,-15.68 -22.98976,-34.9577 -23.679759,-55.3477 -11.279996,5.38 -22.239246,11.52954 -32.229243,19.06954 -7.299999,5.62 -17.658795,11.06693 -22.168796,19.21693 -3.519993,6.25 -1.581892,14.86253 0.498107,21.84253 2.49,8.75001 9.100275,15.58025 16.170275,20.95025 10.849999,8.07 23.389492,13.53056 36.089492,17.98056 28.230004,9.63 53.822164,15.00117 83.472164,17.42117 -3.79,17.23001 -1.94093,34.18892 -1.75093,51.84892 0.4,27.81999 6.32926,56.45916 22.07926,79.81916 12.08,18.11004 30.92039,31.57967 52.1104,36.72963 17.95999,4.33003 37.41018,5.11099 54.96018,-1.37898 20.70999,-7.54004 37.6891,-23.50082 48.4991,-42.50082 6.11,-10.92 10.57052,-23.0901 10.93053,-35.7001 0.24999,-8.72001 1.73894,-19.31288 -4.49106,-25.71287 -7.23,-7.42001 -23.84885,-14.95203 -33.90884,-14.63203 -3.24001,18.71 -18.3089,31.66254 -32.6089,43.80254 -9.38,7.67 -14.15209,16.68542 -26.70209,15.62542 -9.9,-0.45 -16.95035,0.97269 -23.35035,-6.84731 -8.39,-10.09001 -10.4999,-22.48802 -10.3799,-35.21802 0.49,-22.87 3.39045,-44.15704 12.99045,-64.75704 0.5,-1.61 2.57071,-1.08059 3.82071,-1.39059 24.55,-2.19001 49.08982,-7.69948 71.27982,-18.67948 15.08,-7.61 29.27004,-17.91014 38.97004,-31.94013 7.21999,-10.43 11.67944,-23.47037 9.36944,-36.20037 -1.72,-10.23 -8.11952,-19.22973 -16.48952,-25.15973 -13.89,-9.82 -31.45006,-12.63969 -48.13006,-12.51968 z m 702.72435,1.86185 c -5.6775,0.2375 -11.2843,1.53798 -16.39427,4.10798 -11.44,5.62 -20.03056,15.56996 -26.80057,26.13996 -9.76001,15.47 -16.23902,32.7597 -21.36901,50.2397 -7.25001,-1.37 -15.05015,-0.84977 -21.53014,2.91024 -10.62999,5.97 -17.44048,16.69014 -22.77044,27.31014 -7.41999,15.54 -11.65953,21.30426 -14.86953,38.18426 -0.38,-10.71 0.54997,-10.64484 -1.68005,-21.24484 -1.91999,-10 -7.08057,-19.68954 -15.5406,-25.62954 -15.51997,-10.92 -37.98008,-8.65935 -52.39006,3.13065 -7.61997,6.1 -13.88925,17.07277 -14.40923,26.85276 9.87998,-1.84 20.25037,-3.1292 28.91037,3.1408 8.93,6.77 8.04061,17.51679 8.48067,27.9968 0.52995,27.52 -0.94099,54.2091 -1.83099,81.65909 -0.21002,9.19 -0.45063,19.02975 3.99938,27.37976 3.34998,6.41 10.48011,9.67978 17.3901,10.49979 12.83003,1.58997 30.48927,-2.77516 43.21928,-4.41517 -1.71005,-3.87998 -3.89086,-8.31219 -5.64087,-12.17215 -5.50998,-10.98 -10.84914,-20.02226 -10.46914,-32.29226 0.47004,-25.12 1.36055,-50.82043 12.26054,-73.73043 7.61007,-16.07 16.92113,-26.46984 33.77116,-33.01984 -6.83006,40.52 -10.6902,77.36005 -10.89024,118.42006 0.01,9.19 4.39014,19.23998 8.3701,27.76996 2.56,5.54003 8.34943,8.75962 14.20941,9.61964 8.71001,1.34995 17.6005,0.51124 26.33052,-0.39883 3.47003,-0.22992 7.10876,-1.71054 10.4487,-0.0405 13.87006,4.26997 29.11111,-1.04934 39.48111,-10.65934 12.6,-11.45997 20.6296,-27.0509 26.0596,-42.9909 6.2,-18.93 9.1207,-39.22917 6.5007,-59.07917 -1.7401,-12.01 -5.9513,-24.8599 -16.1513,-32.3099 -9.41,-6.77 -21.9697,-5.65038 -32.5397,-2.63038 -13.75003,4.03 -21.49047,6.64143 -29.83046,17.91143 0.48999,-12.76 0.84982,-14.90506 1.9898,-27.61506 15.02999,-1.68 32.00976,-5.44929 45.09966,-13.17929 15.6701,-9.1 25.7413,-25.48437 31.7813,-42.67437 5.0401,-14.23 3.8994,-31.8928 -2.5607,-45.77279 -4.56,-9.95001 -13.359,-17.86036 -23.8189,-21.15035 -5.39,-1.68 -11.1386,-2.50538 -16.8162,-2.26788 z m -554.58524,0.001 c -1.35892,0.0345 -2.71439,0.12041 -4.05936,0.25666 -9.99002,1.18 -19.08949,6.44056 -26.22949,13.35056 -10.37,9.91 -17.61072,22.55885 -23.48072,35.51885 -8.66,19.38 -16.55812,37.66502 -20.87812,58.39502 -7.29,-1.07 -16.53996,-1.24641 -23.75996,-2.69641 -1.05,2.86 3.02892,7.44231 5.52893,9.6723 4.88,4.74001 6.90067,6.38148 13.31066,7.60148 -6.91999,39.71 -4.35126,79.40765 -4.70126,119.67765 0.13,10.33 -0.97896,21.47086 4.30104,30.83088 3.56,6.39998 10.89927,9.42929 17.87926,10.17928 12.65001,1.39004 30.77914,-1.61248 43.31914,-3.2225 -6.78,-9.67 -12.13963,-21.30934 -14.26964,-32.66934 -3.83999,-23.72 -6.74877,-47.13725 -6.61877,-71.12725 0.16,-1.83 -0.53054,-4.02087 0.96946,-5.46087 3,-3.6 6.82973,-6.88024 11.53973,-7.83025 5.93,-1 12.58061,1.23035 15.95061,6.39036 4.08999,6.15 -3.61855,13.77039 -3.15855,20.96039 0.94,26.6 3.73858,53.13041 6.71859,79.71041 1.2,9.95002 3.81992,20.36948 10.78997,27.93945 9.10994,9.63004 24.25952,12.0597 36.55952,8.07964 10.14001,-3.63 22.1595,-15.78455 30.31954,-22.76451 -8.32005,-1.00999 -14.15065,-2.43658 -20.03066,-8.6866 -7.79998,-7.99997 -14.32398,-14.60887 -15.074,-25.36888 -1.15003,-20.37999 1.12465,-40.59982 2.66464,-60.85982 0.88003,-12.38 1.72062,-25.09975 -1.54936,-37.21975 -1.99002,-7.56 -4.12027,-16.34354 -11.44031,-19.57354 -8.68999,-3.78 -23.32994,-6.17586 -32.22993,-2.83586 -13.14,4.82 -20.6898,8.6175 -29.3498,19.4975 0.34,-11.56999 1.61965,-11.85318 2.77965,-23.36318 11.89,-1.35 21.30052,-6.45478 32.21052,-11.43479 14.41996,-6.49999 27.23949,-16.90043 35.73948,-30.32043 8.95999,-14.02999 13.28988,-31.42963 10.02994,-47.91963 -2.00006,-10.66999 -7.79024,-20.79973 -16.75023,-27.08973 -7.81371,-5.55625 -17.51801,-7.85853 -27.03052,-7.61709 z M 1504.9198,589.5611 c -18.46,24.03999 -46.2407,39.1704 -75.0507,47.2004 -24.63,6.98 -50.2496,9.76003 -75.7595,10.71003 -35.4101,1.53 -68.3312,-3.09239 -103.6412,-4.96239 0.4999,-11.52 1.5104,-22.83701 -2.5596,-34.06701 -2.38,-6.96 -9.2091,-11.51143 -16.3591,-12.25144 -12.2801,-1.44999 -27.8098,2.78199 -39.4198,6.38199 6.78,11.94 7.9201,25.02813 9.1601,38.39813 -17.6299,0.04 -32.4009,0.18044 -49.7409,3.78044 -6.57,1.55 -13.4992,3.4702 -18.4591,8.31021 -3.59,3.36999 -7.2602,8.82985 -5.6702,13.39985 2.43,7.38001 12.2093,16.88906 17.2693,22.57906 17.06,-14.9 34.6218,-14.78003 56.4818,-16.74003 0.11,52.53 -1.1711,96.91172 -3.8011,149.33171 -0.18,7.94001 -2.78,8.6616 -1.5996,16.56158 -4.5999,-3.93002 -2.0612,-6.39453 -4.7912,-11.85453 -5.86,-11.37 -9.5652,-20.06361 -10.1652,-32.62361 -0.8199,-24 0.5993,-47.99907 0.3193,-71.99907 0.09,-3.63 -4.8038,-6.05502 -8.3038,-7.01501 -7.18,-2.12001 -13.3077,-2.50448 -20.4277,-1.00448 -2.75,-8.59 -8.3015,-15.48483 -16.2915,-20.36484 -6.73,-4.2 -15.1799,-3.54005 -22.5699,-1.74005 -12.6,3.2 -23.0101,11.96898 -30.7501,22.11898 -10.58,13.95 -19.3837,30.76372 -23.4736,47.68372 -4.07,17.46999 -3.4059,35.53595 -0.3659,53.29595 2.05,11.01 6.0787,22.48076 14.9386,29.86074 8.12,6.87001 19.9802,7.54969 29.7003,4.02972 9.0999,-3.42005 16.09,-10.65043 21.82,-18.26043 5.08,-6.86 9.4008,-14.25887 13.1609,-21.91887 0.54,-1.27 0.9586,0.94474 2.0586,0.10474 1.39,15.45 2.6602,27.94523 7.8102,42.72523 2.7,7.63003 7.2909,15.37892 15.0309,18.7389 8.56,3.79 18.3605,1.71032 26.6204,-1.90966 8.3501,-3.46006 15.7393,-8.72911 23.1293,-13.82911 13.9901,-1.48997 30.1896,-8.04342 42.5696,-14.4734 -7.06,-17.61 -8.0904,-37.10039 -9.3705,-55.87039 -2.1199,-40.5 -1.9696,-77.10075 1.1104,-117.49075 45.89,1.67 89.5206,11.24392 135.0506,16.70392 28.82,3.56 59.1303,4.80656 88.1903,5.22656 16.58,0.49 35.8589,-1.44967 49.3989,-11.93967 10.3101,-7.8 13.5605,-23.32631 13.6005,-36.12631 v -4.92 c -2.17,-18.52 -12.4393,-36.41082 -28.8493,-45.78081 z m -838.46423,6.29754 c -10.27384,0.0726 -27.4965,3.01903 -37.24399,6.07278 4.61998,7.38 9.97866,16.4205 11.18859,24.9105 1.71005,12.91999 0.13115,23.65494 0.26117,36.68495 -13.00001,1.75999 -22.31502,5.16513 -35.43499,5.58513 -6.12001,10.02 4.91251,24.62927 16.50253,23.48927 8.01998,0.09 12.9817,2.93664 21.01165,2.86664 -1.37999,40.59 -4.29496,78.41322 -6.54493,118.96322 -0.42004,9.9 0.20462,11.22002 0.77461,21.13005 -6.49003,-5.13007 -5.91187,-5.82463 -8.40192,-13.65463 -3.4,-10.69 -4.72015,-20.01465 -5.07015,-31.15465 -0.43,-22.7 -2.7694,-45.3999 -2.99936,-68.0999 0.16998,-3.64 -0.0303,-9.64697 -3.5003,-10.60698 -7.19004,-2.13 -17.1193,-0.0186 -24.24927,1.43137 -2.7,-8.56 -6.83021,-15.1347 -14.7102,-20.0747 -7.67005,-4.76 -23.7984,-4.50241 -32.00837,-1.96241 -16.02998,5.36 -23.95113,17.92734 -31.97118,32.26734 -13.69909,17.0461 -13.15006,41.80461 -14.64004,63.04461 -0.84996,14.59 0.0807,29.72008 5.86066,43.32008 3.48997,8.17999 9.54947,15.87015 18.17947,18.92018 11.11999,3.89 23.97986,0.83032 32.77992,-6.8297 11.60997,-9.89 19.0694,-23.57079 25.81938,-37.00079 0.72003,0.69 1.09027,1.54033 1.12027,2.53032 0.67001,9.58001 1.54029,19.16969 3.22034,28.62968 1.97,10.2 4.61976,21.02081 11.94978,28.80081 5.86995,6.29998 15.21968,8.00926 23.37964,6.2192 12.45004,-2.68994 23.23082,-9.93985 33.40082,-17.25984 13.62,-1.6 30.48837,-10.05743 42.55842,-16.31746 -7.82001,-19.65998 -10.25941,-38.11253 -11.38942,-59.02253 -1.18002,-28.64 -3.04923,-57.3195 -1.36928,-85.9195 8.62003,-0.01 17.23017,0.0594 25.8502,-0.0406 5.97995,-0.26 12.79974,-1.349 16.78975,-6.299 3.62995,-4.74 2.83998,-11.24096 1.10999,-16.56096 -2.68995,-7.81 -6.99044,-15.2091 -12.97047,-20.96909 -9.01997,3.71999 -18.4392,6.37996 -27.96918,8.38995 0.64999,-8.10999 1.43952,-16.2013 2.19958,-24.30129 0.84996,-9.04001 2.09979,-18.82949 -2.34017,-27.16949 -3.15999,-6.18 -10.0597,-9.40031 -16.72968,-9.86031 -1.47507,-0.115 -2.94615,-0.16262 -4.41387,-0.15225 z m 666.32453,98.70309 c -17.5,0.11001 -33.8907,8.96015 -46.1107,21.04015 -16.2799,16 -26.5501,38.23954 -27.2501,61.12954 -0.35,16.97 2.5897,34.71036 12.2397,49.03036 8.04,12.16003 21.0308,20.56916 35.0908,24.05914 17.46,4.32001 36.3389,2.71014 52.8689,-4.32981 7.39,-3.29999 14.7601,-7.83984 19.0201,-14.93983 3.52,-5.8 5.0397,-15.12365 0.4097,-20.07365 -4.74,-5.28 -14.3285,-10.85821 -21.1285,-11.71821 -2.16,5.47 -7.6696,12.12322 -11.8896,16.28322 -5.36,5.57001 -8.0815,8.26762 -15.9115,7.10762 -6.99,-0.91 -11.5107,-3.47381 -14.9907,-9.40381 -4.79,-8.05 -9.8587,-15.25542 -10.1987,-24.46542 14.73,3.85999 30.6794,5.91107 45.4193,0.94108 11.3101,-3.68001 20.86,-11.96055 26.6,-22.32055 8.0601,-14.50999 10.3399,-31.99963 7.1098,-48.20963 -1.56,-6.77001 -4.0086,-14.17117 -9.9786,-18.31117 -4.5,-3.03 -10.7601,-4.82931 -15.04,-2.5193 -8.15,-4.73 -16.81,-3.50972 -26.2599,-3.29973 z m -531.95866,3.25869 c -2.98686,0.0716 -5.76696,0.25119 -8.70321,0.80619 -3.32,0.77 -8.68853,0.82735 -10.70854,3.80734 -1.7,4.59 -2.3435,12.44691 -3.27354,17.24691 -4.00995,23.77 -7.23591,42.67851 -6.57594,66.73851 -1.72999,4.47 -0.54037,5.88228 -5.00035,7.97228 -4.04999,1.84 -5.00131,6.79022 -6.88133,3.40021 -4.48997,-7.82999 -5.60003,-17.04039 -6.36002,-25.88039 -1.45999,-22.39 -0.68934,-46.43354 4.3407,-68.19354 -12.45003,-2.04 -27.35205,-4.41577 -39.64201,-0.63577 -4.75007,1.66 -11.96726,5.6766 -12.70731,11.1966 -2.71993,17.58 -1.38012,36.65261 -1.64007,54.44261 -0.04,18.43 1.02916,37.25964 7.25916,54.76964 3.96999,11.09 11.14008,22.06016 22.52009,26.54017 7.45996,2.78 16.81051,4.21072 23.5305,-1.10926 10.47997,-8.02002 15.92044,-20.54007 21.02044,-32.32007 2.33004,15.6 5.31938,31.63014 13.50941,45.35011 4.15001,6.89006 10.85996,13.09976 19.24995,13.67974 15.45002,0.77999 33.07007,-9.01876 42.62007,-21.49874 -7.64995,-2.08005 -12.64117,-5.81816 -17.47116,-12.14813 -8.47998,-10.89002 -13.13497,-22.23177 -14.96498,-35.66177 -2.88999,-23.53001 -1.81208,-46.50441 2.32789,-69.77441 1.94997,-9.59999 2.33845,-19.87756 6.74841,-28.71756 -3.65995,-3.71 -6.63101,-6.89257 -11.63098,-7.94258 -4.86876,-1.01249 -12.5891,-2.18742 -17.56718,-2.06809 z"/>
      <path d="M 3.539948,7.5527525 C 3.0647806,7.4179805 2.8618846,7.3206256 2.6976038,7.1485688 2.3414609,6.7755727 2.968508,6.3491522 4.167523,6.1489606 c 1.6030746,-0.2676583 3.1193305,-0.2428963 9.44941,0.1543135 1.592935,0.099956 2.521534,0.1296151 4.057882,0.1296151 2.397213,0 3.073576,-0.071266 4.002876,-0.4217741 l 0.281348,-0.1061182 0.380003,0.1033764 c 0.557607,0.1516851 0.883222,0.3054881 1.066955,0.5039657 0.192079,0.2074955 0.188708,0.316799 -0.01462,0.473746 -0.303803,0.2345007 -0.58823,0.2561359 -3.339613,0.2540319 -2.496556,-0.00191 -2.648292,-0.00786 -4.9681,-0.1946392 C 11.601503,6.7651058 11.061097,6.7345129 9.5230424,6.7306762 8.1057512,6.7271419 7.6593516,6.7629622 6.6515723,6.9610909 6.0268663,7.0839091 4.9670343,7.3893731 4.5665268,7.5620453 4.2145874,7.7137769 4.1041489,7.7127781 3.539948,7.5527525 Z"/>
    </g>

    <!-- Main pink contour -->
    <g stroke="#ff5dae"
       stroke-width="0.032"
       opacity="1">
      <path transform="matrix(0.01719996,0,0,0.01767501,-0.31847685,-9.4730566)"
            d="m 308.76925,563.06198 c -24.31,-0.13001 -48.04042,9.59957 -66.52042,25.14957 -24.69,20.61 -47.62823,41.55112 -57.78823,71.73112 -26.52,-6.25 -43.39187,-11.91249 -61.04187,-33.20249 -13.2,-15.68 -22.98976,-34.9577 -23.679759,-55.3477 -11.279996,5.38 -22.239246,11.52954 -32.229243,19.06954 -7.299999,5.62 -17.658795,11.06693 -22.168796,19.21693 -3.519993,6.25 -1.581892,14.86253 0.498107,21.84253 2.49,8.75001 9.100275,15.58025 16.170275,20.95025 10.849999,8.07 23.389492,13.53056 36.089492,17.98056 28.230004,9.63 53.822164,15.00117 83.472164,17.42117 -3.79,17.23001 -1.94093,34.18892 -1.75093,51.84892 0.4,27.81999 6.32926,56.45916 22.07926,79.81916 12.08,18.11004 30.92039,31.57967 52.1104,36.72963 17.95999,4.33003 37.41018,5.11099 54.96018,-1.37898 20.70999,-7.54004 37.6891,-23.50082 48.4991,-42.50082 6.11,-10.92 10.57052,-23.0901 10.93053,-35.7001 0.24999,-8.72001 1.73894,-19.31288 -4.49106,-25.71287 -7.23,-7.42001 -23.84885,-14.95203 -33.90884,-14.63203 -3.24001,18.71 -18.3089,31.66254 -32.6089,43.80254 -9.38,7.67 -14.15209,16.68542 -26.70209,15.62542 -9.9,-0.45 -16.95035,0.97269 -23.35035,-6.84731 -8.39,-10.09001 -10.4999,-22.48802 -10.3799,-35.21802 0.49,-22.87 3.39045,-44.15704 12.99045,-64.75704 0.5,-1.61 2.57071,-1.08059 3.82071,-1.39059 24.55,-2.19001 49.08982,-7.69948 71.27982,-18.67948 15.08,-7.61 29.27004,-17.91014 38.97004,-31.94013 7.21999,-10.43 11.67944,-23.47037 9.36944,-36.20037 -1.72,-10.23 -8.11952,-19.22973 -16.48952,-25.15973 -13.89,-9.82 -31.45006,-12.63969 -48.13006,-12.51968 z m 702.72435,1.86185 c -5.6775,0.2375 -11.2843,1.53798 -16.39427,4.10798 -11.44,5.62 -20.03056,15.56996 -26.80057,26.13996 -9.76001,15.47 -16.23902,32.7597 -21.36901,50.2397 -7.25001,-1.37 -15.05015,-0.84977 -21.53014,2.91024 -10.62999,5.97 -17.44048,16.69014 -22.77044,27.31014 -7.41999,15.54 -11.65953,21.30426 -14.86953,38.18426 -0.38,-10.71 0.54997,-10.64484 -1.68005,-21.24484 -1.91999,-10 -7.08057,-19.68954 -15.5406,-25.62954 -15.51997,-10.92 -37.98008,-8.65935 -52.39006,3.13065 -7.61997,6.1 -13.88925,17.07277 -14.40923,26.85276 9.87998,-1.84 20.25037,-3.1292 28.91037,3.1408 8.93,6.77 8.04061,17.51679 8.48067,27.9968 0.52995,27.52 -0.94099,54.2091 -1.83099,81.65909 -0.21002,9.19 -0.45063,19.02975 3.99938,27.37976 3.34998,6.41 10.48011,9.67978 17.3901,10.49979 12.83003,1.58997 30.48927,-2.77516 43.21928,-4.41517 -1.71005,-3.87998 -3.89086,-8.31219 -5.64087,-12.17215 -5.50998,-10.98 -10.84914,-20.02226 -10.46914,-32.29226 0.47004,-25.12 1.36055,-50.82043 12.26054,-73.73043 7.61007,-16.07 16.92113,-26.46984 33.77116,-33.01984 -6.83006,40.52 -10.6902,77.36005 -10.89024,118.42006 0.01,9.19 4.39014,19.23998 8.3701,27.76996 2.56,5.54003 8.34943,8.75962 14.20941,9.61964 8.71001,1.34995 17.6005,0.51124 26.33052,-0.39883 3.47003,-0.22992 7.10876,-1.71054 10.4487,-0.0405 13.87006,4.26997 29.11111,-1.04934 39.48111,-10.65934 12.6,-11.45997 20.6296,-27.0509 26.0596,-42.9909 6.2,-18.93 9.1207,-39.22917 6.5007,-59.07917 -1.7401,-12.01 -5.9513,-24.8599 -16.1513,-32.3099 -9.41,-6.77 -21.9697,-5.65038 -32.5397,-2.63038 -13.75003,4.03 -21.49047,6.64143 -29.83046,17.91143 0.48999,-12.76 0.84982,-14.90506 1.9898,-27.61506 15.02999,-1.68 32.00976,-5.44929 45.09966,-13.17929 15.6701,-9.1 25.7413,-25.48437 31.7813,-42.67437 5.0401,-14.23 3.8994,-31.8928 -2.5607,-45.77279 -4.56,-9.95001 -13.359,-17.86036 -23.8189,-21.15035 -5.39,-1.68 -11.1386,-2.50538 -16.8162,-2.26788 z m -554.58524,0.001 c -1.35892,0.0345 -2.71439,0.12041 -4.05936,0.25666 -9.99002,1.18 -19.08949,6.44056 -26.22949,13.35056 -10.37,9.91 -17.61072,22.55885 -23.48072,35.51885 -8.66,19.38 -16.55812,37.66502 -20.87812,58.39502 -7.29,-1.07 -16.53996,-1.24641 -23.75996,-2.69641 -1.05,2.86 3.02892,7.44231 5.52893,9.6723 4.88,4.74001 6.90067,6.38148 13.31066,7.60148 -6.91999,39.71 -4.35126,79.40765 -4.70126,119.67765 0.13,10.33 -0.97896,21.47086 4.30104,30.83088 3.56,6.39998 10.89927,9.42929 17.87926,10.17928 12.65001,1.39004 30.77914,-1.61248 43.31914,-3.2225 -6.78,-9.67 -12.13963,-21.30934 -14.26964,-32.66934 -3.83999,-23.72 -6.74877,-47.13725 -6.61877,-71.12725 0.16,-1.83 -0.53054,-4.02087 0.96946,-5.46087 3,-3.6 6.82973,-6.88024 11.53973,-7.83025 5.93,-1 12.58061,1.23035 15.95061,6.39036 4.08999,6.15 -3.61855,13.77039 -3.15855,20.96039 0.94,26.6 3.73858,53.13041 6.71859,79.71041 1.2,9.95002 3.81992,20.36948 10.78997,27.93945 9.10994,9.63004 24.25952,12.0597 36.55952,8.07964 10.14001,-3.63 22.1595,-15.78455 30.31954,-22.76451 -8.32005,-1.00999 -14.15065,-2.43658 -20.03066,-8.6866 -7.79998,-7.99997 -14.32398,-14.60887 -15.074,-25.36888 -1.15003,-20.37999 1.12465,-40.59982 2.66464,-60.85982 0.88003,-12.38 1.72062,-25.09975 -1.54936,-37.21975 -1.99002,-7.56 -4.12027,-16.34354 -11.44031,-19.57354 -8.68999,-3.78 -23.32994,-6.17586 -32.22993,-2.83586 -13.14,4.82 -20.6898,8.6175 -29.3498,19.4975 0.34,-11.56999 1.61965,-11.85318 2.77965,-23.36318 11.89,-1.35 21.30052,-6.45478 32.21052,-11.43479 14.41996,-6.49999 27.23949,-16.90043 35.73948,-30.32043 8.95999,-14.02999 13.28988,-31.42963 10.02994,-47.91963 -2.00006,-10.66999 -7.79024,-20.79973 -16.75023,-27.08973 -7.81371,-5.55625 -17.51801,-7.85853 -27.03052,-7.61709 z M 1504.9198,589.5611 c -18.46,24.03999 -46.2407,39.1704 -75.0507,47.2004 -24.63,6.98 -50.2496,9.76003 -75.7595,10.71003 -35.4101,1.53 -68.3312,-3.09239 -103.6412,-4.96239 0.4999,-11.52 1.5104,-22.83701 -2.5596,-34.06701 -2.38,-6.96 -9.2091,-11.51143 -16.3591,-12.25144 -12.2801,-1.44999 -27.8098,2.78199 -39.4198,6.38199 6.78,11.94 7.9201,25.02813 9.1601,38.39813 -17.6299,0.04 -32.4009,0.18044 -49.7409,3.78044 -6.57,1.55 -13.4992,3.4702 -18.4591,8.31021 -3.59,3.36999 -7.2602,8.82985 -5.6702,13.39985 2.43,7.38001 12.2093,16.88906 17.2693,22.57906 17.06,-14.9 34.6218,-14.78003 56.4818,-16.74003 0.11,52.53 -1.1711,96.91172 -3.8011,149.33171 -0.18,7.94001 -2.78,8.6616 -1.5996,16.56158 -4.5999,-3.93002 -2.0612,-6.39453 -4.7912,-11.85453 -5.86,-11.37 -9.5652,-20.06361 -10.1652,-32.62361 -0.8199,-24 0.5993,-47.99907 0.3193,-71.99907 0.09,-3.63 -4.8038,-6.05502 -8.3038,-7.01501 -7.18,-2.12001 -13.3077,-2.50448 -20.4277,-1.00448 -2.75,-8.59 -8.3015,-15.48483 -16.2915,-20.36484 -6.73,-4.2 -15.1799,-3.54005 -22.5699,-1.74005 -12.6,3.2 -23.0101,11.96898 -30.7501,22.11898 -10.58,13.95 -19.3837,30.76372 -23.4736,47.68372 -4.07,17.46999 -3.4059,35.53595 -0.3659,53.29595 2.05,11.01 6.0787,22.48076 14.9386,29.86074 8.12,6.87001 19.9802,7.54969 29.7003,4.02972 9.0999,-3.42005 16.09,-10.65043 21.82,-18.26043 5.08,-6.86 9.4008,-14.25887 13.1609,-21.91887 0.54,-1.27 0.9586,0.94474 2.0586,0.10474 1.39,15.45 2.6602,27.94523 7.8102,42.72523 2.7,7.63003 7.2909,15.37892 15.0309,18.7389 8.56,3.79 18.3605,1.71032 26.6204,-1.90966 8.3501,-3.46006 15.7393,-8.72911 23.1293,-13.82911 13.9901,-1.48997 30.1896,-8.04342 42.5696,-14.4734 -7.06,-17.61 -8.0904,-37.10039 -9.3705,-55.87039 -2.1199,-40.5 -1.9696,-77.10075 1.1104,-117.49075 45.89,1.67 89.5206,11.24392 135.0506,16.70392 28.82,3.56 59.1303,4.80656 88.1903,5.22656 16.58,0.49 35.8589,-1.44967 49.3989,-11.93967 10.3101,-7.8 13.5605,-23.32631 13.6005,-36.12631 v -4.92 c -2.17,-18.52 -12.4393,-36.41082 -28.8493,-45.78081 z m -838.46423,6.29754 c -10.27384,0.0726 -27.4965,3.01903 -37.24399,6.07278 4.61998,7.38 9.97866,16.4205 11.18859,24.9105 1.71005,12.91999 0.13115,23.65494 0.26117,36.68495 -13.00001,1.75999 -22.31502,5.16513 -35.43499,5.58513 -6.12001,10.02 4.91251,24.62927 16.50253,23.48927 8.01998,0.09 12.9817,2.93664 21.01165,2.86664 -1.37999,40.59 -4.29496,78.41322 -6.54493,118.96322 -0.42004,9.9 0.20462,11.22002 0.77461,21.13005 -6.49003,-5.13007 -5.91187,-5.82463 -8.40192,-13.65463 -3.4,-10.69 -4.72015,-20.01465 -5.07015,-31.15465 -0.43,-22.7 -2.7694,-45.3999 -2.99936,-68.0999 0.16998,-3.64 -0.0303,-9.64697 -3.5003,-10.60698 -7.19004,-2.13 -17.1193,-0.0186 -24.24927,1.43137 -2.7,-8.56 -6.83021,-15.1347 -14.7102,-20.0747 -7.67005,-4.76 -23.7984,-4.50241 -32.00837,-1.96241 -16.02998,5.36 -23.95113,17.92734 -31.97118,32.26734 -13.69909,17.0461 -13.15006,41.80461 -14.64004,63.04461 -0.84996,14.59 0.0807,29.72008 5.86066,43.32008 3.48997,8.17999 9.54947,15.87015 18.17947,18.92018 11.11999,3.89 23.97986,0.83032 32.77992,-6.8297 11.60997,-9.89 19.0694,-23.57079 25.81938,-37.00079 0.72003,0.69 1.09027,1.54033 1.12027,2.53032 0.67001,9.58001 1.54029,19.16969 3.22034,28.62968 1.97,10.2 4.61976,21.02081 11.94978,28.80081 5.86995,6.29998 15.21968,8.00926 23.37964,6.2192 12.45004,-2.68994 23.23082,-9.93985 33.40082,-17.25984 13.62,-1.6 30.48837,-10.05743 42.55842,-16.31746 -7.82001,-19.65998 -10.25941,-38.11253 -11.38942,-59.02253 -1.18002,-28.64 -3.04923,-57.3195 -1.36928,-85.9195 8.62003,-0.01 17.23017,0.0594 25.8502,-0.0406 5.97995,-0.26 12.79974,-1.349 16.78975,-6.299 3.62995,-4.74 2.83998,-11.24096 1.10999,-16.56096 -2.68995,-7.81 -6.99044,-15.2091 -12.97047,-20.96909 -9.01997,3.71999 -18.4392,6.37996 -27.96918,8.38995 0.64999,-8.10999 1.43952,-16.2013 2.19958,-24.30129 0.84996,-9.04001 2.09979,-18.82949 -2.34017,-27.16949 -3.15999,-6.18 -10.0597,-9.40031 -16.72968,-9.86031 -1.47507,-0.115 -2.94615,-0.16262 -4.41387,-0.15225 z m 666.32453,98.70309 c -17.5,0.11001 -33.8907,8.96015 -46.1107,21.04015 -16.2799,16 -26.5501,38.23954 -27.2501,61.12954 -0.35,16.97 2.5897,34.71036 12.2397,49.03036 8.04,12.16003 21.0308,20.56916 35.0908,24.05914 17.46,4.32001 36.3389,2.71014 52.8689,-4.32981 7.39,-3.29999 14.7601,-7.83984 19.0201,-14.93983 3.52,-5.8 5.0397,-15.12365 0.4097,-20.07365 -4.74,-5.28 -14.3285,-10.85821 -21.1285,-11.71821 -2.16,5.47 -7.6696,12.12322 -11.8896,16.28322 -5.36,5.57001 -8.0815,8.26762 -15.9115,7.10762 -6.99,-0.91 -11.5107,-3.47381 -14.9907,-9.40381 -4.79,-8.05 -9.8587,-15.25542 -10.1987,-24.46542 14.73,3.85999 30.6794,5.91107 45.4193,0.94108 11.3101,-3.68001 20.86,-11.96055 26.6,-22.32055 8.0601,-14.50999 10.3399,-31.99963 7.1098,-48.20963 -1.56,-6.77001 -4.0086,-14.17117 -9.9786,-18.31117 -4.5,-3.03 -10.7601,-4.82931 -15.04,-2.5193 -8.15,-4.73 -16.81,-3.50972 -26.2599,-3.29973 z m -531.95866,3.25869 c -2.98686,0.0716 -5.76696,0.25119 -8.70321,0.80619 -3.32,0.77 -8.68853,0.82735 -10.70854,3.80734 -1.7,4.59 -2.3435,12.44691 -3.27354,17.24691 -4.00995,23.77 -7.23591,42.67851 -6.57594,66.73851 -1.72999,4.47 -0.54037,5.88228 -5.00035,7.97228 -4.04999,1.84 -5.00131,6.79022 -6.88133,3.40021 -4.48997,-7.82999 -5.60003,-17.04039 -6.36002,-25.88039 -1.45999,-22.39 -0.68934,-46.43354 4.3407,-68.19354 -12.45003,-2.04 -27.35205,-4.41577 -39.64201,-0.63577 -4.75007,1.66 -11.96726,5.6766 -12.70731,11.1966 -2.71993,17.58 -1.38012,36.65261 -1.64007,54.44261 -0.04,18.43 1.02916,37.25964 7.25916,54.76964 3.96999,11.09 11.14008,22.06016 22.52009,26.54017 7.45996,2.78 16.81051,4.21072 23.5305,-1.10926 10.47997,-8.02002 15.92044,-20.54007 21.02044,-32.32007 2.33004,15.6 5.31938,31.63014 13.50941,45.35011 4.15001,6.89006 10.85996,13.09976 19.24995,13.67974 15.45002,0.77999 33.07007,-9.01876 42.62007,-21.49874 -7.64995,-2.08005 -12.64117,-5.81816 -17.47116,-12.14813 -8.47998,-10.89002 -13.13497,-22.23177 -14.96498,-35.66177 -2.88999,-23.53001 -1.81208,-46.50441 2.32789,-69.77441 1.94997,-9.59999 2.33845,-19.87756 6.74841,-28.71756 -3.65995,-3.71 -6.63101,-6.89257 -11.63098,-7.94258 -4.86876,-1.01249 -12.5891,-2.18742 -17.56718,-2.06809 z"/>
      <path d="M 3.539948,7.5527525 C 3.0647806,7.4179805 2.8618846,7.3206256 2.6976038,7.1485688 2.3414609,6.7755727 2.968508,6.3491522 4.167523,6.1489606 c 1.6030746,-0.2676583 3.1193305,-0.2428963 9.44941,0.1543135 1.592935,0.099956 2.521534,0.1296151 4.057882,0.1296151 2.397213,0 3.073576,-0.071266 4.002876,-0.4217741 l 0.281348,-0.1061182 0.380003,0.1033764 c 0.557607,0.1516851 0.883222,0.3054881 1.066955,0.5039657 0.192079,0.2074955 0.188708,0.316799 -0.01462,0.473746 -0.303803,0.2345007 -0.58823,0.2561359 -3.339613,0.2540319 -2.496556,-0.00191 -2.648292,-0.00786 -4.9681,-0.1946392 C 11.601503,6.7651058 11.061097,6.7345129 9.5230424,6.7306762 8.1057512,6.7271419 7.6593516,6.7629622 6.6515723,6.9610909 6.0268663,7.0839091 4.9670343,7.3893731 4.5665268,7.5620453 4.2145874,7.7137769 4.1041489,7.7127781 3.539948,7.5527525 Z"/>
    </g>

    <!-- Fine highlight -->
    <g stroke="#ff9dce"
       stroke-width="0.014"
       opacity="0.95">
      <path transform="matrix(0.01719996,0,0,0.01767501,-0.31847685,-9.4730566)"
            d="m 308.76925,563.06198 c -24.31,-0.13001 -48.04042,9.59957 -66.52042,25.14957 -24.69,20.61 -47.62823,41.55112 -57.78823,71.73112 -26.52,-6.25 -43.39187,-11.91249 -61.04187,-33.20249 -13.2,-15.68 -22.98976,-34.9577 -23.679759,-55.3477 -11.279996,5.38 -22.239246,11.52954 -32.229243,19.06954 -7.299999,5.62 -17.658795,11.06693 -22.168796,19.21693 -3.519993,6.25 -1.581892,14.86253 0.498107,21.84253 2.49,8.75001 9.100275,15.58025 16.170275,20.95025 10.849999,8.07 23.389492,13.53056 36.089492,17.98056 28.230004,9.63 53.822164,15.00117 83.472164,17.42117 -3.79,17.23001 -1.94093,34.18892 -1.75093,51.84892 0.4,27.81999 6.32926,56.45916 22.07926,79.81916 12.08,18.11004 30.92039,31.57967 52.1104,36.72963 17.95999,4.33003 37.41018,5.11099 54.96018,-1.37898 20.70999,-7.54004 37.6891,-23.50082 48.4991,-42.50082 6.11,-10.92 10.57052,-23.0901 10.93053,-35.7001 0.24999,-8.72001 1.73894,-19.31288 -4.49106,-25.71287 -7.23,-7.42001 -23.84885,-14.95203 -33.90884,-14.63203 -3.24001,18.71 -18.3089,31.66254 -32.6089,43.80254 -9.38,7.67 -14.15209,16.68542 -26.70209,15.62542 -9.9,-0.45 -16.95035,0.97269 -23.35035,-6.84731 -8.39,-10.09001 -10.4999,-22.48802 -10.3799,-35.21802 0.49,-22.87 3.39045,-44.15704 12.99045,-64.75704 0.5,-1.61 2.57071,-1.08059 3.82071,-1.39059 24.55,-2.19001 49.08982,-7.69948 71.27982,-18.67948 15.08,-7.61 29.27004,-17.91014 38.97004,-31.94013 7.21999,-10.43 11.67944,-23.47037 9.36944,-36.20037 -1.72,-10.23 -8.11952,-19.22973 -16.48952,-25.15973 -13.89,-9.82 -31.45006,-12.63969 -48.13006,-12.51968 z m 702.72435,1.86185 c -5.6775,0.2375 -11.2843,1.53798 -16.39427,4.10798 -11.44,5.62 -20.03056,15.56996 -26.80057,26.13996 -9.76001,15.47 -16.23902,32.7597 -21.36901,50.2397 -7.25001,-1.37 -15.05015,-0.84977 -21.53014,2.91024 -10.62999,5.97 -17.44048,16.69014 -22.77044,27.31014 -7.41999,15.54 -11.65953,21.30426 -14.86953,38.18426 -0.38,-10.71 0.54997,-10.64484 -1.68005,-21.24484 -1.91999,-10 -7.08057,-19.68954 -15.5406,-25.62954 -15.51997,-10.92 -37.98008,-8.65935 -52.39006,3.13065 -7.61997,6.1 -13.88925,17.07277 -14.40923,26.85276 9.87998,-1.84 20.25037,-3.1292 28.91037,3.1408 8.93,6.77 8.04061,17.51679 8.48067,27.9968 0.52995,27.52 -0.94099,54.2091 -1.83099,81.65909 -0.21002,9.19 -0.45063,19.02975 3.99938,27.37976 3.34998,6.41 10.48011,9.67978 17.3901,10.49979 12.83003,1.58997 30.48927,-2.77516 43.21928,-4.41517 -1.71005,-3.87998 -3.89086,-8.31219 -5.64087,-12.17215 -5.50998,-10.98 -10.84914,-20.02226 -10.46914,-32.29226 0.47004,-25.12 1.36055,-50.82043 12.26054,-73.73043 7.61007,-16.07 16.92113,-26.46984 33.77116,-33.01984 -6.83006,40.52 -10.6902,77.36005 -10.89024,118.42006 0.01,9.19 4.39014,19.23998 8.3701,27.76996 2.56,5.54003 8.34943,8.75962 14.20941,9.61964 8.71001,1.34995 17.6005,0.51124 26.33052,-0.39883 3.47003,-0.22992 7.10876,-1.71054 10.4487,-0.0405 13.87006,4.26997 29.11111,-1.04934 39.48111,-10.65934 12.6,-11.45997 20.6296,-27.0509 26.0596,-42.9909 6.2,-18.93 9.1207,-39.22917 6.5007,-59.07917 -1.7401,-12.01 -5.9513,-24.8599 -16.1513,-32.3099 -9.41,-6.77 -21.9697,-5.65038 -32.5397,-2.63038 -13.75003,4.03 -21.49047,6.64143 -29.83046,17.91143 0.48999,-12.76 0.84982,-14.90506 1.9898,-27.61506 15.02999,-1.68 32.00976,-5.44929 45.09966,-13.17929 15.6701,-9.1 25.7413,-25.48437 31.7813,-42.67437 5.0401,-14.23 3.8994,-31.8928 -2.5607,-45.77279 -4.56,-9.95001 -13.359,-17.86036 -23.8189,-21.15035 -5.39,-1.68 -11.1386,-2.50538 -16.8162,-2.26788 z m -554.58524,0.001 c -1.35892,0.0345 -2.71439,0.12041 -4.05936,0.25666 -9.99002,1.18 -19.08949,6.44056 -26.22949,13.35056 -10.37,9.91 -17.61072,22.55885 -23.48072,35.51885 -8.66,19.38 -16.55812,37.66502 -20.87812,58.39502 -7.29,-1.07 -16.53996,-1.24641 -23.75996,-2.69641 -1.05,2.86 3.02892,7.44231 5.52893,9.6723 4.88,4.74001 6.90067,6.38148 13.31066,7.60148 -6.91999,39.71 -4.35126,79.40765 -4.70126,119.67765 0.13,10.33 -0.97896,21.47086 4.30104,30.83088 3.56,6.39998 10.89927,9.42929 17.87926,10.17928 12.65001,1.39004 30.77914,-1.61248 43.31914,-3.2225 -6.78,-9.67 -12.13963,-21.30934 -14.26964,-32.66934 -3.83999,-23.72 -6.74877,-47.13725 -6.61877,-71.12725 0.16,-1.83 -0.53054,-4.02087 0.96946,-5.46087 3,-3.6 6.82973,-6.88024 11.53973,-7.83025 5.93,-1 12.58061,1.23035 15.95061,6.39036 4.08999,6.15 -3.61855,13.77039 -3.15855,20.96039 0.94,26.6 3.73858,53.13041 6.71859,79.71041 1.2,9.95002 3.81992,20.36948 10.78997,27.93945 9.10994,9.63004 24.25952,12.0597 36.55952,8.07964 10.14001,-3.63 22.1595,-15.78455 30.31954,-22.76451 -8.32005,-1.00999 -14.15065,-2.43658 -20.03066,-8.6866 -7.79998,-7.99997 -14.32398,-14.60887 -15.074,-25.36888 -1.15003,-20.37999 1.12465,-40.59982 2.66464,-60.85982 0.88003,-12.38 1.72062,-25.09975 -1.54936,-37.21975 -1.99002,-7.56 -4.12027,-16.34354 -11.44031,-19.57354 -8.68999,-3.78 -23.32994,-6.17586 -32.22993,-2.83586 -13.14,4.82 -20.6898,8.6175 -29.3498,19.4975 0.34,-11.56999 1.61965,-11.85318 2.77965,-23.36318 11.89,-1.35 21.30052,-6.45478 32.21052,-11.43479 14.41996,-6.49999 27.23949,-16.90043 35.73948,-30.32043 8.95999,-14.02999 13.28988,-31.42963 10.02994,-47.91963 -2.00006,-10.66999 -7.79024,-20.79973 -16.75023,-27.08973 -7.81371,-5.55625 -17.51801,-7.85853 -27.03052,-7.61709 z M 1504.9198,589.5611 c -18.46,24.03999 -46.2407,39.1704 -75.0507,47.2004 -24.63,6.98 -50.2496,9.76003 -75.7595,10.71003 -35.4101,1.53 -68.3312,-3.09239 -103.6412,-4.96239 0.4999,-11.52 1.5104,-22.83701 -2.5596,-34.06701 -2.38,-6.96 -9.2091,-11.51143 -16.3591,-12.25144 -12.2801,-1.44999 -27.8098,2.78199 -39.4198,6.38199 6.78,11.94 7.9201,25.02813 9.1601,38.39813 -17.6299,0.04 -32.4009,0.18044 -49.7409,3.78044 -6.57,1.55 -13.4992,3.4702 -18.4591,8.31021 -3.59,3.36999 -7.2602,8.82985 -5.6702,13.39985 2.43,7.38001 12.2093,16.88906 17.2693,22.57906 17.06,-14.9 34.6218,-14.78003 56.4818,-16.74003 0.11,52.53 -1.1711,96.91172 -3.8011,149.33171 -0.18,7.94001 -2.78,8.6616 -1.5996,16.56158 -4.5999,-3.93002 -2.0612,-6.39453 -4.7912,-11.85453 -5.86,-11.37 -9.5652,-20.06361 -10.1652,-32.62361 -0.8199,-24 0.5993,-47.99907 0.3193,-71.99907 0.09,-3.63 -4.8038,-6.05502 -8.3038,-7.01501 -7.18,-2.12001 -13.3077,-2.50448 -20.4277,-1.00448 -2.75,-8.59 -8.3015,-15.48483 -16.2915,-20.36484 -6.73,-4.2 -15.1799,-3.54005 -22.5699,-1.74005 -12.6,3.2 -23.0101,11.96898 -30.7501,22.11898 -10.58,13.95 -19.3837,30.76372 -23.4736,47.68372 -4.07,17.46999 -3.4059,35.53595 -0.3659,53.29595 2.05,11.01 6.0787,22.48076 14.9386,29.86074 8.12,6.87001 19.9802,7.54969 29.7003,4.02972 9.0999,-3.42005 16.09,-10.65043 21.82,-18.26043 5.08,-6.86 9.4008,-14.25887 13.1609,-21.91887 0.54,-1.27 0.9586,0.94474 2.0586,0.10474 1.39,15.45 2.6602,27.94523 7.8102,42.72523 2.7,7.63003 7.2909,15.37892 15.0309,18.7389 8.56,3.79 18.3605,1.71032 26.6204,-1.90966 8.3501,-3.46006 15.7393,-8.72911 23.1293,-13.82911 13.9901,-1.48997 30.1896,-8.04342 42.5696,-14.4734 -7.06,-17.61 -8.0904,-37.10039 -9.3705,-55.87039 -2.1199,-40.5 -1.9696,-77.10075 1.1104,-117.49075 45.89,1.67 89.5206,11.24392 135.0506,16.70392 28.82,3.56 59.1303,4.80656 88.1903,5.22656 16.58,0.49 35.8589,-1.44967 49.3989,-11.93967 10.3101,-7.8 13.5605,-23.32631 13.6005,-36.12631 v -4.92 c -2.17,-18.52 -12.4393,-36.41082 -28.8493,-45.78081 z m -838.46423,6.29754 c -10.27384,0.0726 -27.4965,3.01903 -37.24399,6.07278 4.61998,7.38 9.97866,16.4205 11.18859,24.9105 1.71005,12.91999 0.13115,23.65494 0.26117,36.68495 -13.00001,1.75999 -22.31502,5.16513 -35.43499,5.58513 -6.12001,10.02 4.91251,24.62927 16.50253,23.48927 8.01998,0.09 12.9817,2.93664 21.01165,2.86664 -1.37999,40.59 -4.29496,78.41322 -6.54493,118.96322 -0.42004,9.9 0.20462,11.22002 0.77461,21.13005 -6.49003,-5.13007 -5.91187,-5.82463 -8.40192,-13.65463 -3.4,-10.69 -4.72015,-20.01465 -5.07015,-31.15465 -0.43,-22.7 -2.7694,-45.3999 -2.99936,-68.0999 0.16998,-3.64 -0.0303,-9.64697 -3.5003,-10.60698 -7.19004,-2.13 -17.1193,-0.0186 -24.24927,1.43137 -2.7,-8.56 -6.83021,-15.1347 -14.7102,-20.0747 -7.67005,-4.76 -23.7984,-4.50241 -32.00837,-1.96241 -16.02998,5.36 -23.95113,17.92734 -31.97118,32.26734 -13.69909,17.0461 -13.15006,41.80461 -14.64004,63.04461 -0.84996,14.59 0.0807,29.72008 5.86066,43.32008 3.48997,8.17999 9.54947,15.87015 18.17947,18.92018 11.11999,3.89 23.97986,0.83032 32.77992,-6.8297 11.60997,-9.89 19.0694,-23.57079 25.81938,-37.00079 0.72003,0.69 1.09027,1.54033 1.12027,2.53032 0.67001,9.58001 1.54029,19.16969 3.22034,28.62968 1.97,10.2 4.61976,21.02081 11.94978,28.80081 5.86995,6.29998 15.21968,8.00926 23.37964,6.2192 12.45004,-2.68994 23.23082,-9.93985 33.40082,-17.25984 13.62,-1.6 30.48837,-10.05743 42.55842,-16.31746 -7.82001,-19.65998 -10.25941,-38.11253 -11.38942,-59.02253 -1.18002,-28.64 -3.04923,-57.3195 -1.36928,-85.9195 8.62003,-0.01 17.23017,0.0594 25.8502,-0.0406 5.97995,-0.26 12.79974,-1.349 16.78975,-6.299 3.62995,-4.74 2.83998,-11.24096 1.10999,-16.56096 -2.68995,-7.81 -6.99044,-15.2091 -12.97047,-20.96909 -9.01997,3.71999 -18.4392,6.37996 -27.96918,8.38995 0.64999,-8.10999 1.43952,-16.2013 2.19958,-24.30129 0.84996,-9.04001 2.09979,-18.82949 -2.34017,-27.16949 -3.15999,-6.18 -10.0597,-9.40031 -16.72968,-9.86031 -1.47507,-0.115 -2.94615,-0.16262 -4.41387,-0.15225 z m 666.32453,98.70309 c -17.5,0.11001 -33.8907,8.96015 -46.1107,21.04015 -16.2799,16 -26.5501,38.23954 -27.2501,61.12954 -0.35,16.97 2.5897,34.71036 12.2397,49.03036 8.04,12.16003 21.0308,20.56916 35.0908,24.05914 17.46,4.32001 36.3389,2.71014 52.8689,-4.32981 7.39,-3.29999 14.7601,-7.83984 19.0201,-14.93983 3.52,-5.8 5.0397,-15.12365 0.4097,-20.07365 -4.74,-5.28 -14.3285,-10.85821 -21.1285,-11.71821 -2.16,5.47 -7.6696,12.12322 -11.8896,16.28322 -5.36,5.57001 -8.0815,8.26762 -15.9115,7.10762 -6.99,-0.91 -11.5107,-3.47381 -14.9907,-9.40381 -4.79,-8.05 -9.8587,-15.25542 -10.1987,-24.46542 14.73,3.85999 30.6794,5.91107 45.4193,0.94108 11.3101,-3.68001 20.86,-11.96055 26.6,-22.32055 8.0601,-14.50999 10.3399,-31.99963 7.1098,-48.20963 -1.56,-6.77001 -4.0086,-14.17117 -9.9786,-18.31117 -4.5,-3.03 -10.7601,-4.82931 -15.04,-2.5193 -8.15,-4.73 -16.81,-3.50972 -26.2599,-3.29973 z m -531.95866,3.25869 c -2.98686,0.0716 -5.76696,0.25119 -8.70321,0.80619 -3.32,0.77 -8.68853,0.82735 -10.70854,3.80734 -1.7,4.59 -2.3435,12.44691 -3.27354,17.24691 -4.00995,23.77 -7.23591,42.67851 -6.57594,66.73851 -1.72999,4.47 -0.54037,5.88228 -5.00035,7.97228 -4.04999,1.84 -5.00131,6.79022 -6.88133,3.40021 -4.48997,-7.82999 -5.60003,-17.04039 -6.36002,-25.88039 -1.45999,-22.39 -0.68934,-46.43354 4.3407,-68.19354 -12.45003,-2.04 -27.35205,-4.41577 -39.64201,-0.63577 -4.75007,1.66 -11.96726,5.6766 -12.70731,11.1966 -2.71993,17.58 -1.38012,36.65261 -1.64007,54.44261 -0.04,18.43 1.02916,37.25964 7.25916,54.76964 3.96999,11.09 11.14008,22.06016 22.52009,26.54017 7.45996,2.78 16.81051,4.21072 23.5305,-1.10926 10.47997,-8.02002 15.92044,-20.54007 21.02044,-32.32007 2.33004,15.6 5.31938,31.63014 13.50941,45.35011 4.15001,6.89006 10.85996,13.09976 19.24995,13.67974 15.45002,0.77999 33.07007,-9.01876 42.62007,-21.49874 -7.64995,-2.08005 -12.64117,-5.81816 -17.47116,-12.14813 -8.47998,-10.89002 -13.13497,-22.23177 -14.96498,-35.66177 -2.88999,-23.53001 -1.81208,-46.50441 2.32789,-69.77441 1.94997,-9.59999 2.33845,-19.87756 6.74841,-28.71756 -3.65995,-3.71 -6.63101,-6.89257 -11.63098,-7.94258 -4.86876,-1.01249 -12.5891,-2.18742 -17.56718,-2.06809 z"/>
      <path d="M 3.539948,7.5527525 C 3.0647806,7.4179805 2.8618846,7.3206256 2.6976038,7.1485688 2.3414609,6.7755727 2.968508,6.3491522 4.167523,6.1489606 c 1.6030746,-0.2676583 3.1193305,-0.2428963 9.44941,0.1543135 1.592935,0.099956 2.521534,0.1296151 4.057882,0.1296151 2.397213,0 3.073576,-0.071266 4.002876,-0.4217741 l 0.281348,-0.1061182 0.380003,0.1033764 c 0.557607,0.1516851 0.883222,0.3054881 1.066955,0.5039657 0.192079,0.2074955 0.188708,0.316799 -0.01462,0.473746 -0.303803,0.2345007 -0.58823,0.2561359 -3.339613,0.2540319 -2.496556,-0.00191 -2.648292,-0.00786 -4.9681,-0.1946392 C 11.601503,6.7651058 11.061097,6.7345129 9.5230424,6.7306762 8.1057512,6.7271419 7.6593516,6.7629622 6.6515723,6.9610909 6.0268663,7.0839091 4.9670343,7.3893731 4.5665268,7.5620453 4.2145874,7.7137769 4.1041489,7.7127781 3.539948,7.5527525 Z"/>
    </g>

  </g>
</svg>
