<svg aria-label="Chaturbate" role="img" viewBox="0 0 26.458 7.9375" xmlns="http://www.w3.org/2000/svg">
<path fill="none" stroke="#ff5dae" stroke-width="0.10" stroke-linecap="round" stroke-linejoin="round" vector-effect="non-scaling-stroke" transform="matrix(.0172 0 0 .017675 -.31848 -9.4731)" d="m308.77 563.06c-24.31-0.13001-48.04 9.5996-66.52 25.15-24.69 20.61-47.628 41.551-57.788 71.731-26.52-6.25-43.392-11.912-61.042-33.202-13.2-15.68-22.99-34.958-23.68-55.348-11.28 5.38-22.239 11.53-32.229 19.07-7.3 5.62-17.659 11.067-22.169 19.217-3.52 6.25-1.5819 14.863 0.49811 21.843 2.49 8.75 9.1003 15.58 16.17 20.95 10.85 8.07 23.389 13.531 36.089 17.981 28.23 9.63 53.822 15.001 83.472 17.421-3.79 17.23-1.9409 34.189-1.7509 51.849 0.4 27.82 6.3293 56.459 22.079 79.819 12.08 18.11 30.92 31.58 52.11 36.73 17.96 4.33 37.41 5.111 54.96-1.379 20.71-7.54 37.689-23.501 48.499-42.501 6.11-10.92 10.571-23.09 10.931-35.7 0.24999-8.72 1.7389-19.313-4.4911-25.713-7.23-7.42-23.849-14.952-33.909-14.632-3.24 18.71-18.309 31.663-32.609 43.803-9.38 7.67-14.152 16.685-26.702 15.625-9.9-0.45-16.95 0.97269-23.35-6.8473-8.39-10.09-10.5-22.488-10.38-35.218 0.49-22.87 3.3904-44.157 12.99-64.757 0.5-1.61 2.5707-1.0806 3.8207-1.3906 24.55-2.19 49.09-7.6995 71.28-18.679 15.08-7.61 29.27-17.91 38.97-31.94 7.22-10.43 11.679-23.47 9.3694-36.2-1.72-10.23-8.1195-19.23-16.49-25.16-13.89-9.82-31.45-12.64-48.13-12.52zm702.72 1.8618c-5.6775 0.2375-11.284 1.538-16.394 4.108-11.44 5.62-20.031 15.57-26.801 26.14-9.76 15.47-16.239 32.76-21.369 50.24-7.25-1.37-15.05-0.84977-21.53 2.9102-10.63 5.97-17.44 16.69-22.77 27.31-7.42 15.54-11.66 21.304-14.87 38.184-0.38-10.71 0.54997-10.645-1.68-21.245-1.92-10-7.0806-19.69-15.541-25.63-15.52-10.92-37.98-8.6594-52.39 3.1306-7.62 6.1-13.889 17.073-14.409 26.853 9.88-1.84 20.25-3.1292 28.91 3.1408 8.93 6.77 8.0406 17.517 8.4807 27.997 0.52995 27.52-0.94099 54.209-1.831 81.659-0.21002 9.19-0.45063 19.03 3.9994 27.38 3.35 6.41 10.48 9.6798 17.39 10.5 12.83 1.59 30.489-2.7752 43.219-4.4152-1.71-3.88-3.8909-8.3122-5.6409-12.172-5.51-10.98-10.849-20.022-10.469-32.292 0.47004-25.12 1.3606-50.82 12.261-73.73 7.6101-16.07 16.921-26.47 33.771-33.02-6.8301 40.52-10.69 77.36-10.89 118.42 0.01 9.19 4.3901 19.24 8.3701 27.77 2.56 5.54 8.3494 8.7596 14.209 9.6196 8.71 1.35 17.6 0.51124 26.331-0.39883 3.47-0.22992 7.1088-1.7105 10.449-0.0405 13.87 4.27 29.111-1.0493 39.481-10.659 12.6-11.46 20.63-27.051 26.06-42.991 6.2-18.93 9.1207-39.229 6.5007-59.079-1.7401-12.01-5.9513-24.86-16.151-32.31-9.41-6.77-21.97-5.6504-32.54-2.6304-13.75 4.03-21.49 6.6414-29.83 17.911 0.48999-12.76 0.84982-14.905 1.9898-27.615 15.03-1.68 32.01-5.4493 45.1-13.179 15.67-9.1 25.741-25.484 31.781-42.674 5.0401-14.23 3.8994-31.893-2.5607-45.773-4.56-9.95-13.359-17.86-23.819-21.15-5.39-1.68-11.139-2.5054-16.816-2.2679zm-554.59 1e-3c-1.3589 0.0345-2.7144 0.12041-4.0594 0.25666-9.99 1.18-19.089 6.4406-26.229 13.351-10.37 9.91-17.611 22.559-23.481 35.519-8.66 19.38-16.558 37.665-20.878 58.395-7.29-1.07-16.54-1.2464-23.76-2.6964-1.05 2.86 3.0289 7.4423 5.5289 9.6723 4.88 4.74 6.9007 6.3815 13.311 7.6015-6.92 39.71-4.3513 79.408-4.7013 119.68 0.13 10.33-0.97896 21.471 4.301 30.831 3.56 6.4 10.899 9.4293 17.879 10.179 12.65 1.39 30.779-1.6125 43.319-3.2225-6.78-9.67-12.14-21.309-14.27-32.669-3.84-23.72-6.7488-47.137-6.6188-71.127 0.16-1.83-0.53054-4.0209 0.96946-5.4609 3-3.6 6.8297-6.8802 11.54-7.8302 5.93-1 12.581 1.2304 15.951 6.3904 4.09 6.15-3.6186 13.77-3.1586 20.96 0.94 26.6 3.7386 53.13 6.7186 79.71 1.2 9.95 3.8199 20.369 10.79 27.939 9.1099 9.63 24.26 12.06 36.56 8.0796 10.14-3.63 22.16-15.785 30.32-22.765-8.32-1.01-14.151-2.4366-20.031-8.6866-7.8-8-14.324-14.609-15.074-25.369-1.15-20.38 1.1246-40.6 2.6646-60.86 0.88003-12.38 1.7206-25.1-1.5494-37.22-1.99-7.56-4.1203-16.344-11.44-19.574-8.69-3.78-23.33-6.1759-32.23-2.8359-13.14 4.82-20.69 8.6175-29.35 19.498 0.34-11.57 1.6196-11.853 2.7796-23.363 11.89-1.35 21.301-6.4548 32.211-11.435 14.42-6.5 27.239-16.9 35.739-30.32 8.96-14.03 13.29-31.43 10.03-47.92-2.0001-10.67-7.7902-20.8-16.75-27.09-7.8137-5.5562-17.518-7.8585-27.031-7.6171zm1048 24.636c-18.46 24.04-46.241 39.17-75.051 47.2-24.63 6.98-50.25 9.76-75.76 10.71-35.41 1.53-68.331-3.0924-103.64-4.9624 0.4999-11.52 1.5104-22.837-2.5596-34.067-2.38-6.96-9.2091-11.511-16.359-12.251-12.28-1.45-27.81 2.782-39.42 6.382 6.78 11.94 7.9201 25.028 9.1601 38.398-17.63 0.04-32.401 0.18044-49.741 3.7804-6.57 1.55-13.499 3.4702-18.459 8.3102-3.59 3.37-7.2602 8.8298-5.6702 13.4 2.43 7.38 12.209 16.889 17.269 22.579 17.06-14.9 34.622-14.78 56.482-16.74 0.11 52.53-1.1711 96.912-3.8011 149.33-0.18 7.94-2.78 8.6616-1.5996 16.562-4.5999-3.93-2.0612-6.3945-4.7912-11.855-5.86-11.37-9.5652-20.064-10.165-32.624-0.8199-24 0.5993-47.999 0.3193-71.999 0.09-3.63-4.8038-6.055-8.3038-7.015-7.18-2.12-13.308-2.5045-20.428-1.0045-2.75-8.59-8.3015-15.485-16.292-20.365-6.73-4.2-15.18-3.54-22.57-1.74-12.6 3.2-23.01 11.969-30.75 22.119-10.58 13.95-19.384 30.764-23.474 47.684-4.07 17.47-3.4059 35.536-0.3659 53.296 2.05 11.01 6.0787 22.481 14.939 29.861 8.12 6.87 19.98 7.5497 29.7 4.0297 9.0999-3.42 16.09-10.65 21.82-18.26 5.08-6.86 9.4008-14.259 13.161-21.919 0.54-1.27 0.9586 0.94474 2.0586 0.10474 1.39 15.45 2.6602 27.945 7.8102 42.725 2.7 7.63 7.2909 15.379 15.031 18.739 8.56 3.79 18.36 1.7103 26.62-1.9097 8.3501-3.4601 15.739-8.7291 23.129-13.829 13.99-1.49 30.19-8.0434 42.57-14.473-7.06-17.61-8.0904-37.1-9.3705-55.87-2.1199-40.5-1.9696-77.101 1.1104-117.49 45.89 1.67 89.521 11.244 135.05 16.704 28.82 3.56 59.13 4.8066 88.19 5.2266 16.58 0.49 35.859-1.4497 49.399-11.94 10.31-7.8 13.56-23.326 13.6-36.126v-4.92c-2.17-18.52-12.439-36.411-28.849-45.781zm-838.46 6.2975c-10.274 0.0726-27.496 3.019-37.244 6.0728 4.62 7.38 9.9787 16.42 11.189 24.91 1.71 12.92 0.13115 23.655 0.26117 36.685-13 1.76-22.315 5.1651-35.435 5.5851-6.12 10.02 4.9125 24.629 16.503 23.489 8.02 0.09 12.982 2.9366 21.012 2.8666-1.38 40.59-4.295 78.413-6.5449 118.96-0.42004 9.9 0.20462 11.22 0.77461 21.13-6.49-5.1301-5.9119-5.8246-8.4019-13.655-3.4-10.69-4.7202-20.015-5.0702-31.155-0.43-22.7-2.7694-45.4-2.9994-68.1 0.16998-3.64-0.0303-9.647-3.5003-10.607-7.19-2.13-17.119-0.0186-24.249 1.4314-2.7-8.56-6.8302-15.135-14.71-20.075-7.67-4.76-23.798-4.5024-32.008-1.9624-16.03 5.36-23.951 17.927-31.971 32.267-13.699 17.046-13.15 41.805-14.64 63.045-0.84996 14.59 0.0807 29.72 5.8607 43.32 3.49 8.18 9.5495 15.87 18.179 18.92 11.12 3.89 23.98 0.83032 32.78-6.8297 11.61-9.89 19.069-23.571 25.819-37.001 0.72003 0.69 1.0903 1.5403 1.1203 2.5303 0.67001 9.58 1.5403 19.17 3.2203 28.63 1.97 10.2 4.6198 21.021 11.95 28.801 5.87 6.3 15.22 8.0093 23.38 6.2192 12.45-2.6899 23.231-9.9398 33.401-17.26 13.62-1.6 30.488-10.057 42.558-16.317-7.82-19.66-10.259-38.113-11.389-59.023-1.18-28.64-3.0492-57.32-1.3693-85.92 8.62-0.01 17.23 0.0594 25.85-0.0406 5.98-0.26 12.8-1.349 16.79-6.299 3.63-4.74 2.84-11.241 1.11-16.561-2.69-7.81-6.9904-15.209-12.97-20.969-9.02 3.72-18.439 6.38-27.969 8.39 0.64999-8.11 1.4395-16.201 2.1996-24.301 0.84996-9.04 2.0998-18.829-2.3402-27.169-3.16-6.18-10.06-9.4003-16.73-9.8603-1.4751-0.115-2.9462-0.16262-4.4139-0.15225zm666.32 98.703c-17.5 0.11001-33.891 8.9602-46.111 21.04-16.28 16-26.55 38.24-27.25 61.13-0.35 16.97 2.5897 34.71 12.24 49.03 8.04 12.16 21.031 20.569 35.091 24.059 17.46 4.32 36.339 2.7101 52.869-4.3298 7.39-3.3 14.76-7.8398 19.02-14.94 3.52-5.8 5.0397-15.124 0.4097-20.074-4.74-5.28-14.328-10.858-21.128-11.718-2.16 5.47-7.6696 12.123-11.89 16.283-5.36 5.57-8.0815 8.2676-15.912 7.1076-6.99-0.91-11.511-3.4738-14.991-9.4038-4.79-8.05-9.8587-15.255-10.199-24.465 14.73 3.86 30.679 5.9111 45.419 0.94108 11.31-3.68 20.86-11.961 26.6-22.321 8.0601-14.51 10.34-32 7.1098-48.21-1.56-6.77-4.0086-14.171-9.9786-18.311-4.5-3.03-10.76-4.8293-15.04-2.5193-8.15-4.73-16.81-3.5097-26.26-3.2997zm-531.96 3.2587c-2.9869 0.0716-5.767 0.25119-8.7032 0.80619-3.32 0.77-8.6885 0.82735-10.709 3.8073-1.7 4.59-2.3435 12.447-3.2735 17.247-4.01 23.77-7.2359 42.679-6.5759 66.739-1.73 4.47-0.54037 5.8823-5.0004 7.9723-4.05 1.84-5.0013 6.7902-6.8813 3.4002-4.49-7.83-5.6-17.04-6.36-25.88-1.46-22.39-0.68934-46.434 4.3407-68.194-12.45-2.04-27.352-4.4158-39.642-0.63577-4.7501 1.66-11.967 5.6766-12.707 11.197-2.7199 17.58-1.3801 36.653-1.6401 54.443-0.04 18.43 1.0292 37.26 7.2592 54.77 3.97 11.09 11.14 22.06 22.52 26.54 7.46 2.78 16.811 4.2107 23.53-1.1093 10.48-8.02 15.92-20.54 21.02-32.32 2.33 15.6 5.3194 31.63 13.509 45.35 4.15 6.8901 10.86 13.1 19.25 13.68 15.45 0.77999 33.07-9.0188 42.62-21.499-7.65-2.08-12.641-5.8182-17.471-12.148-8.48-10.89-13.135-22.232-14.965-35.662-2.89-23.53-1.8121-46.504 2.3279-69.774 1.95-9.6 2.3384-19.878 6.7484-28.718-3.66-3.71-6.631-6.8926-11.631-7.9426-4.8688-1.0125-12.589-2.1874-17.567-2.0681z"/>
<path fill="none" stroke="#ff5dae" stroke-width="0.10" stroke-linecap="round" stroke-linejoin="round" vector-effect="non-scaling-stroke" d="m3.5399 7.5528c-0.47517-0.13477-0.67806-0.23213-0.84234-0.40418-0.35614-0.373 0.2709-0.79942 1.4699-0.99961 1.6031-0.26766 3.1193-0.2429 9.4494 0.15431 1.5929 0.099956 2.5215 0.12962 4.0579 0.12962 2.3972 0 3.0736-0.071266 4.0029-0.42177l0.28135-0.10612 0.38 0.10338c0.55761 0.15169 0.88322 0.30549 1.067 0.50397 0.19208 0.2075 0.18871 0.3168-0.01462 0.47375-0.3038 0.2345-0.58823 0.25614-3.3396 0.25403-2.4966-0.00191-2.6483-0.00786-4.9681-0.19464-3.4822-0.28037-4.0226-0.31096-5.5606-0.3148-1.4173-0.0035343-1.8637 0.032286-2.8715 0.23041-0.62471 0.12282-1.6845 0.42828-2.085 0.60095-0.35194 0.15173-0.46238 0.15073-1.0266-0.0092928z"/>
<path fill="none" stroke="#ff5dae" stroke-width="0.10" stroke-linecap="round" stroke-linejoin="round" vector-effect="non-scaling-stroke" d="m4.2401 7.9209c-0.80834-0.13989-1.1856-0.24534-1.4891-0.41626-0.45992-0.25902-0.55275-0.70439-0.22149-1.0626 0.19827-0.21437 0.63841-0.41035 1.2064-0.53717 0.080236-0.017915 0.078477-0.019834-0.095372-0.10382-0.58502-0.28263-0.93996-0.73973-1.1374-1.4647-0.065786-0.24158-0.071582-0.30633-0.073312-0.8188l-0.0018768-0.55647-0.14987-0.018316c-0.24691-0.03017-0.72452-0.14159-0.99035-0.23103-0.55446-0.18656-0.93701-0.45543-1.1116-0.78131-0.052619-0.098199-0.06345-0.15938-0.063839-0.36061-4.0225e-4 -0.20991 0.009475-0.26235 0.073823-0.39182 0.086821-0.17469 0.32083-0.41748 0.55243-0.57314 0.089921-0.06044 0.35049-0.20405 0.57904-0.31914l0.41554-0.20926 2.012e-4 0.27546c2.716e-4 0.35918 0.038957 0.588 0.13308 0.78707 0.13251 0.28026 0.42488 0.54794 0.74794 0.68479l0.12241 0.05185 0.10984-0.21391c0.31783-0.61901 0.73459-1.0524 1.2435-1.2933 0.27316-0.12927 0.48039-0.18347 0.77915-0.20378 0.69159-0.047002 1.3011 0.23209 1.488 0.6814 0.02694 0.064747 0.055114 0.11767 0.062607 0.11761 0.00749-1.719e-4 0.041494-0.048336 0.075558-0.10728 0.11102-0.19212 0.38059-0.45106 0.56081-0.53869 0.54885-0.26688 1.2093-0.065304 1.47 0.44863 0.10265 0.20242 0.13681 0.38988 0.12127 0.66551-0.020809 0.36894-0.18273 0.73684-0.43915 0.99775l-0.095546 0.097224 0.13357 0.12346c0.073463 0.067905 0.14122 0.1473 0.15058 0.17643 0.014954 0.046559 0.037929 0.033114 0.18998-0.11117 0.22646-0.21489 0.4673-0.3285 0.73196-0.34528 0.1066-0.00676 0.24048 4.47e-4 0.2975 0.015997 0.077453 0.021133 0.10597 0.020217 0.11276-0.00362 0.03082-0.10823 0.10308-0.28586 0.13243-0.32552 0.026977-0.036456 0.092109-0.049998 0.29918-0.062207l0.2647-0.015605-0.0011-0.083557c-5.77e-4 -0.045957-0.01638-0.16838-0.035098-0.27205-0.029676-0.16435-0.053969-0.21385-0.18966-0.38649-0.085594-0.1089-0.15563-0.20629-0.15563-0.21642 0-0.010128 0.1686-0.071266 0.37467-0.13587 0.31755-0.099545 0.41829-0.11922 0.66078-0.12908 0.27219-0.01107 0.2934-0.007926 0.43579 0.064598 0.25227 0.12848 0.37913 0.34712 0.3942 0.67938 0.0061 0.13392 0.01206 0.14596 0.07596 0.1527 0.27682 0.029164 0.58974 0.46558 0.5972 0.83289l0.0023 0.11306 0.17457 0.031786c0.15045 0.027394 0.19263 0.025443 0.30533-0.014111 0.11776-0.04133 0.1397-0.06292 0.22053-0.21698 0.2847-0.54263 1.0357-0.71599 1.5669-0.3617 0.07229 0.048212 0.13953 0.077841 0.14943 0.065839 0.0099-0.012002 0.06414-0.079324 0.12054-0.1496 0.1265-0.15763 0.29958-0.27796 0.46127-0.3207 0.1213-0.032061 0.12359-0.034823 0.20652-0.24973 0.37473-0.97108 1.0959-1.3873 1.8184-1.0496 0.74126 0.34653 0.80462 1.4442 0.1239 2.1466-0.09527 0.098304-0.09717 0.10389-0.04497 0.1324 0.07033 0.038407 0.24119 0.20726 0.27937 0.2761 0.02764 0.049825 0.03744 0.044585 0.14738-0.078841 0.13328-0.14962 0.38992-0.32354 0.5453-0.36955l0.10427-0.030871v-0.15555c0-0.19161 0.03262-0.28108 0.14473-0.39696 0.16208-0.16754 0.43971-0.26515 0.82942-0.29163 0.16393-0.011137 0.25205-0.028105 0.25205-0.048529 0-0.017274-0.07518-0.13099-0.16706-0.25271-0.09189-0.12171-0.16239-0.22555-0.15668-0.23074 0.0057-0.00519 0.16979-0.060704 0.36462-0.12336 0.28971-0.093169 0.40387-0.11636 0.62672-0.12728 0.33569-0.016459 0.45908 0.014094 0.61912 0.15331 0.14052 0.12223 0.22442 0.29424 0.25107 0.51472l0.01816 0.15022 0.42779 0.031574c1.132 0.083548 1.9948-0.017709 2.6486-0.31082 0.25161-0.11281 0.53108-0.34935 0.74977-0.63459l0.09868-0.12871 0.16676 0.08832c0.25296 0.13398 0.51699 0.40247 0.63222 0.64292 0.30763 0.64191 0.10411 1.3089-0.48662 1.5947-0.32636 0.15791-0.77354 0.18389-1.6893 0.098149-0.16294-0.015258-0.30017-0.023872-0.30496-0.019141-0.0048 0.00473 0.01059 0.073622 0.03416 0.1531 0.03212 0.10828 0.03957 0.21939 0.02974 0.44331-0.01524 0.34694-0.08556 0.57122-0.25006 0.79748-0.10108 0.13903-0.10131 0.13994-0.04455 0.17923 0.03138 0.021719 0.09347 0.10225 0.13799 0.17895 0.06661 0.11477 0.08098 0.17012 0.0812 0.31271 5.5e-4 0.36672-0.19155 0.56889-0.76271 0.80276l-0.06812 0.027894 0.08174 0.031617c0.36994 0.14309 0.68823 0.37965 0.78032 0.57997 0.0597 0.12987 0.06617 0.38278 0.01301 0.50852-0.12049 0.28497-0.51802 0.45873-1.2021 0.52543-0.63591 0.062009-1.7571 0.090352-2.9565 0.074735-1.3374-0.017413-2.1746-0.060269-4.8231-0.24688-2.9579-0.20841-4.3313-0.26791-5.7304-0.24824-0.75363 0.010598-1.0925 0.026715-1.436 0.068306-1.0601 0.12835-1.9013 0.312-2.7521 0.60086-0.49984 0.16969-0.57009 0.18699-0.68122 0.16776zm0.35583-0.44299c0.94347-0.34107 2.1439-0.59834 3.3228-0.71208 1.1875-0.11459 3.2098-0.059527 6.4716 0.17619 1.3314 0.096217 2.7922 0.19 3.8012 0.24404 0.70632 0.037828 3.9026 0.018897 4.2917-0.025417 0.40824-0.046499 0.68815-0.10693 0.83435-0.18014 0.14141-0.07081 0.18748-0.12986 0.18748-0.24028 0-0.28156-0.45546-0.52834-1.2968-0.70262-0.32889-0.068129-0.3436-0.068935-0.45484-0.024889-0.46671 0.1848-0.99166 0.29291-1.8589 0.38282-0.39579 0.041032-0.71317 0.04771-2.1799 0.045863-0.95323-0.0012-1.9772-0.016458-2.3025-0.034311-0.32222-0.01768-0.92305-0.049902-1.3352-0.071603-0.41214-0.021697-1.2889-0.069868-1.9483-0.10705-0.65942-0.037175-1.4748-0.079821-1.812-0.094766-0.3372-0.014943-0.85221-0.039373-1.1445-0.054287-0.92522-0.047219-3.0125-0.063994-3.5832-0.028795-1.1486 0.07084-1.8971 0.19044-2.3748 0.37945-0.49329 0.19519-0.64012 0.41497-0.43045 0.64431 0.14771 0.16157 0.50985 0.29838 1.1158 0.42154 0.39465 0.080211 0.42711 0.079372 0.69644-0.017994zm14.311-1.3885 0.452-0.017613-0.092752-0.12004c-0.05101-0.066019-0.10778-0.16109-0.12614-0.21126-0.03865-0.10563-0.05727-0.11042-0.14983-0.038471-0.11358 0.088289-0.35324 0.16266-0.52417 0.16266-0.29457 0-0.53129-0.12366-0.69994-0.36563l-0.10099-0.1449-0.14236 0.13673c-0.0783 0.0752-0.19149 0.16568-0.25155 0.20107-0.16002 0.094297-0.45096 0.15441-0.63325 0.13083-0.08243-0.010658-0.27945-0.016837-0.43783-0.013733-0.2289 0.00449-0.32186-0.00563-0.45323-0.049366l-0.16526-0.055015-0.36424 0.052955c-0.20033 0.029123-0.41328 0.053883-0.47323 0.05502-0.08864 0.00168-0.12285 0.018579-0.18318 0.090481l-0.07418 0.088413 0.20488 0.017114c0.11268 0.00941 0.59363 0.029756 1.0688 0.045206 0.47514 0.01545 0.91906 0.031548 0.98651 0.035775 0.26471 0.016583 1.7326 0.01643 2.16-2.062e-4zm-5.9387-0.24492c-0.02578-0.040726-0.04928-0.077798-0.0522-0.082382-0.0029-0.00458-0.05244 0.016624-0.11003 0.047124-0.05758 0.0305-0.12941 0.057174-0.1596 0.059274-0.07315 0.00509 0.1356 0.041371 0.2659 0.046212l0.10281 0.00382zm1.0051 0.020741c0.13563-0.050177 0.34844-0.19642 0.34844-0.23944 0-0.010757-0.04241-0.034713-0.09425-0.053237-0.20483-0.073191-0.38235-0.36152-0.45167-0.73364-0.0741-0.3977-0.01686-1.2145 0.11458-1.635 0.03886-0.12433 0.04529-0.17989 0.02379-0.2055-0.07538-0.089754-0.54858-0.1395-0.67765-0.071242-0.0319 0.016872-0.07079 0.054294-0.08643 0.083163-0.05102 0.094199-0.10855 0.5693-0.12716 1.0501-0.0181 0.46775-0.01875 0.47156-0.09335 0.54527-0.04131 0.040824-0.08888 0.074229-0.1057 0.074229-0.05785 0-0.16062-0.12864-0.19652-0.24598-0.05555-0.18161-0.04099-0.91942 0.02396-1.214l0.05177-0.23477-0.11912-0.017652c-0.06551-0.00971-0.21686-0.012059-0.33633-0.00522-0.24192 0.013838-0.34758 0.066621-0.38107 0.19035-0.07279 0.26897-0.10325 1.1709-0.05066 1.5003 0.08825 0.55273 0.33561 0.86166 0.68994 0.86166 0.09967 0 0.13815-0.016693 0.23275-0.10098 0.06234-0.055539 0.15946-0.18845 0.21583-0.29535l0.10249-0.19438 0.04901 0.2396c0.06182 0.30218 0.21247 0.60866 0.34102 0.69374 0.11847 0.078406 0.32737 0.081569 0.5263 0.00797zm6.2866-0.11145c0.08359-0.046127 0.17128-0.10058 0.19487-0.12101 0.02359-0.020425 0.13395-0.06041 0.24524-0.088854 0.2076-0.053058 0.51594-0.18049 0.51541-0.21301-1.89e-4 -0.010022-0.01924-0.078805-0.04239-0.15285-0.08197-0.26214-0.11973-0.68457-0.12027-1.3456-4.3e-4 -0.52989 0.04178-1.5157 0.06605-1.5423 0.02477-0.027201 0.86458 0.066666 2.2359 0.24992 0.81575 0.10901 1.67 0.16206 1.9367 0.12027 0.46791-0.073315 0.7362-0.32428 0.76823-0.71863 0.02449-0.30158-0.14271-0.67286-0.38543-0.8558l-0.09535-0.071866-0.17199 0.17322c-0.66723 0.67201-1.8233 0.92607-3.5781 0.78635-0.26977-0.021477-0.53192-0.039308-0.58255-0.039628l-0.09208-5.673e-4 0.01907-0.24088c0.01645-0.20781 0.01167-0.2574-0.0348-0.36121-0.05642-0.12605-0.11873-0.17349-0.27303-0.20788-0.09418-0.020987-0.34526 0.00803-0.52565 0.060749l-0.09935 0.029034 0.04165 0.097554c0.0417 0.097676 0.1198 0.54093 0.10071 0.57161-0.0056 0.00897-0.19751 0.023134-0.42652 0.031487-0.54821 0.019993-0.77484 0.092335-0.83646 0.26701-0.03411 0.096708 0.02172 0.24708 0.14548 0.39176l0.07462 0.087235 0.08637-0.063965c0.0475-0.035181 0.13542-0.088105 0.19537-0.11761 0.14098-0.069389 0.53827-0.16792 0.67706-0.16792h0.10808l-0.01742 0.61259c-0.0096 0.33692-0.03535 0.86099-0.05726 1.1646-0.02191 0.3036-0.04848 0.72687-0.05905 0.9406l-0.01922 0.38859-0.06554-0.078931c-0.20985-0.25275-0.23715-0.40568-0.23852-1.3364-8.94e-4 -0.5993-0.009131-0.78061-0.036766-0.80781-0.023388-0.023022-0.1035-0.033979-0.23325-0.031901l-0.19762 0.00317-0.08011-0.15089c-0.11294-0.21272-0.22339-0.2806-0.43435-0.26695-0.21741 0.01407-0.34779 0.079794-0.54822 0.27634-0.60778 0.59602-0.74968 2.0368-0.23576 2.3937 0.0968 0.067231 0.13925 0.079096 0.27833 0.077801 0.28412-0.00265 0.49264-0.16869 0.7191-0.57265l0.11321-0.20195 0.02102 0.17503c0.06101 0.50813 0.15468 0.79085 0.2968 0.8957 0.15808 0.11663 0.39345 0.1031 0.64774-0.037231zm-1.5461-0.8912c-0.08392-0.082926-0.0094-0.66494 0.12987-1.014 0.06464-0.16206 0.23404-0.43421 0.27027-0.43421 0.09437 0 0.11612 0.67666 0.03055 0.95042-0.09495 0.3038-0.34019 0.58726-0.43069 0.49783zm2.465 0.96148c0.13708-0.037132 0.29516-0.086472 0.35128-0.10965 0.09538-0.039382 0.09907-0.045074 0.05647-0.087166-0.0426-0.042091-0.05727-0.039036-0.22478 0.04678-0.09856 0.050499-0.25452 0.11948-0.34658 0.15329-0.22272 0.081803-0.1447 0.080247 0.1636-0.00326zm-10.618-0.047636c0.06795-0.029235 0.17925-0.092222 0.24735-0.13997 0.06809-0.047748 0.17232-0.095665 0.23161-0.10648 0.11263-0.02054 0.50139-0.16555 0.53724-0.20039 0.01139-0.011063 0.0023-0.079978-0.02008-0.15315-0.09393-0.30643-0.12816-0.68329-0.12764-1.4054 2.92e-4 -0.38882 0.0088-0.7725 0.01893-0.85262l0.01842-0.14568 0.29499-0.00904c0.24821-0.00761 0.30717-0.01801 0.37182-0.065603 0.1122-0.082597 0.11992-0.26211 0.01968-0.45787-0.11644-0.22742-0.13738-0.23871-0.32798-0.17687-0.08792 0.028527-0.19475 0.059948-0.23741 0.069824l-0.07757 0.017955 0.02307-0.2637c0.03373-0.38554 0.02389-0.53044-0.04328-0.63784-0.09689-0.15492-0.31908-0.1905-0.68126-0.1091l-0.18614 0.041837 0.04982 0.12957c0.06542 0.17014 0.11238 0.53063 0.102 0.78305l-0.0083 0.20195-0.29974 0.031133c-0.16486 0.017123-0.31374 0.032267-0.33084 0.033659-0.05453 0.00443-0.06813 0.13445-0.02373 0.22689 0.06689 0.1393 0.16411 0.17954 0.43371 0.17954h0.23422l7.24e-4 0.08751c3.97e-4 0.048132-0.03283 0.63144-0.07385 1.2962l-0.07458 1.2087-0.08621-0.098558c-0.16194-0.18513-0.18618-0.3358-0.20177-1.2545l-0.01393-0.82052-0.06812-0.035349c-0.04609-0.023915-0.12125-0.030201-0.2324-0.01944l-0.16428 0.015902-0.03569-0.097532c-0.083652-0.22861-0.28446-0.35726-0.50997-0.32672-0.41449 0.05614-0.79483 0.50634-0.97008 1.1483-0.08347 0.30574-0.091207 0.95714-0.013966 1.1759 0.16303 0.46175 0.61761 0.56946 0.96276 0.22814 0.12245-0.12109 0.36415-0.48133 0.36415-0.54274 0-0.014615 0.012262-0.026572 0.027249-0.026572s0.027342 0.051497 0.027455 0.11444c6.12e-4 0.34026 0.1098 0.73816 0.24316 0.88611 0.14888 0.16517 0.32891 0.18587 0.60043 0.069059zm-1.4739-0.98209c-0.066628-0.16866 0.046059-0.75712 0.21093-1.1015 0.077589-0.16207 0.19476-0.31249 0.22773-0.29235 0.046385 0.028326 0.089614 0.3771 0.074769 0.60323-0.022935 0.34934-0.17996 0.70512-0.36373 0.82411-0.088464 0.057278-0.11632 0.051054-0.14971-0.03346zm3.1354 1.0448c-0.09998-0.029981-0.18986-0.080002-0.29172-0.16235l-0.08895-0.071907-0.45934 0.2194 0.22325 0.01518c0.35055 0.023832 0.69672 0.023651 0.61676-3.267e-4zm-3.8738-0.080019c0.085747-0.043243 0.19473-0.1074 0.24218-0.14258l0.08628-0.063955-0.14078-0.049129c-0.16719-0.058345-0.31825-0.20367-0.36774-0.35375-0.062556-0.18973-0.068533-0.52639-0.018623-1.049 0.058765-0.6153 0.048398-0.87144-0.042616-1.0529-0.17979-0.35847-0.67912-0.33834-1.0912 0.043992-0.07874 0.073054-0.14636 0.12966-0.15026 0.12581-0.01481-0.014635 0.026071-0.50067 0.044605-0.53031 0.010688-0.01709 0.11623-0.052486 0.23453-0.078659 0.68833-0.15228 1.1552-0.66386 1.1552-1.2659 0-0.31986-0.10916-0.53143-0.35824-0.69431-0.090303-0.059052-0.1483-0.073404-0.33596-0.083139-0.19817-0.010278-0.24328-0.0037044-0.35723 0.052058-0.37277 0.18242-0.67066 0.69376-0.88426 1.5179-0.064223 0.24779-0.084889 0.2952-0.12644 0.29012-0.027315-0.0033469-0.11404-0.014104-0.19272-0.023901-0.13054-0.016263-0.14306-0.01315-0.14306 0.035568 0 0.075845 0.075719 0.13393 0.22659 0.1738 0.11014 0.029109 0.1284 0.043025 0.11695 0.089117-0.072577 0.29219-0.15273 1.3073-0.15209 1.926 7.461e-4 0.72027 0.054848 0.79535 0.57152 0.79309 0.15736-7.048e-4 0.31912-0.00983 0.35946-0.020317l0.073349-0.019063-0.050762-0.11432c-0.11135-0.25076-0.19131-0.84612-0.19131-1.4244 0-0.34311 0.00112-0.34951 0.072811-0.41516 0.099598-0.091213 0.18757-0.10799 0.29669-0.056569 0.18355 0.086498 0.19009 0.12352 0.18081 1.0233-0.00911 0.8823 0.00534 1.0163 0.13063 1.2115 0.10728 0.16717 0.23653 0.23095 0.4711 0.23245 0.15182 9.799e-4 0.21246-0.012806 0.34061-0.077431zm-1.3989-3.513c0.032986-0.26089 0.14724-0.71622 0.21809-0.86915 0.056916-0.12285 0.078733-0.14616 0.13005-0.13894 0.13449 0.018938 0.19961 0.37695 0.11864 0.65221-0.052507 0.17848-0.21034 0.3666-0.37885 0.45156l-0.10684 0.053859zm2.5718 3.439c-0.012881-0.065634-0.054364-0.06845-0.13143-0.00892l-0.068122 0.052618 0.10418 5.844e-4c0.082783 4.814e-4 0.10237-0.00862 0.095371-0.044291zm-3.667-0.0085984 0.21118-3.782e-4 -0.109-0.10771c-0.059948-0.059238-0.109-0.12022-0.109-0.13551 0-0.03247-0.3223 0.21844-0.3251 0.25309-0.00104 0.012834 0.025703 0.016028 0.059423 0.0071 0.03372-0.00893 0.15634-0.016403 0.27249-0.016605zm-0.95658-0.10709c0.49809-0.15208 0.93759-0.61136 1.0716-1.1199 0.12268-0.46545-0.047772-0.77045-0.46383-0.82993l-0.11037-0.015777-0.047667 0.15297c-0.10236 0.32848-0.41744 0.69708-0.71156 0.83242-0.25556 0.1176-0.55191 0.072242-0.73989-0.11323-0.2874-0.28358-0.29104-0.87705-0.0098166-1.5977l0.083101-0.21294 0.16931-0.01895c0.68828-0.077031 1.2614-0.31347 1.6284-0.67179 0.48242-0.47096 0.44429-1.0563-0.086102-1.3219-0.38584-0.19321-0.95037-0.18856-1.3969 0.0115-0.52073 0.23332-1.0156 0.81232-1.2573 1.471-0.027172 0.074049-0.058114 0.14464-0.06876 0.15687-0.058243 0.066896-0.71451-0.22963-0.96892-0.43779-0.16613-0.13593-0.33577-0.34946-0.44124-0.55542-0.065344-0.1276-0.14172-0.40338-0.14232-0.51388-8.011e-4 -0.14799-0.027716-0.14728-0.29351 0.0076357-0.28138 0.164-0.5414 0.39965-0.61648 0.5587-0.073434 0.15556-0.049658 0.35463 0.059943 0.5019 0.24979 0.33565 0.92183 0.6052 1.8451 0.74003 0.14987 0.021888 0.3103 0.039867 0.35651 0.039956 0.046208 1.719e-4 0.090275 0.00634 0.097925 0.013901 0.00765 0.00756-0.00456 0.10147-0.027131 0.20868-0.027438 0.13033-0.041083 0.35114-0.041167 0.66616-1.375e-4 0.42447 0.0070123 0.4976 0.071813 0.73702 0.11057 0.40853 0.23773 0.63806 0.49516 0.89382 0.14732 0.14636 0.2719 0.2425 0.38209 0.29485 0.36175 0.17188 0.83531 0.22149 1.162 0.12174zm-0.73966-3.2017c0-0.01281 0.026523-0.05825 0.058941-0.10097 0.28205-0.37172 0.62442-0.55255 0.80696-0.42621 0.12562 0.086948 0.061496 0.25798-0.1406 0.37502-0.19537 0.11315-0.7253 0.22432-0.7253 0.15216zm18.652 3.1368c0.35868-0.077005 0.6131-0.27583 0.6131-0.47911 0-0.091622-0.0165-0.1257-0.09731-0.20101-0.05352-0.04988-0.11996-0.090694-0.14764-0.090694-0.02768 0-0.06815-0.00675-0.08992-0.015014-0.02633-0.00998-0.06378 0.025781-0.11183 0.1068-0.151 0.25462-0.40232 0.35106-0.58875 0.22594-0.12355-0.08292-0.20886-0.23844-0.24111-0.43957-0.01419-0.088487-0.02216-0.16471-0.01772-0.16939 0.0045-0.00468 0.06144 0.00619 0.12664 0.024136 0.06521 0.017951 0.21052 0.032504 0.32293 0.032341 0.38816-5.672e-4 0.66358-0.17233 0.82588-0.51505 0.15323-0.32357 0.12618-0.86449-0.05149-1.0294-0.05336-0.049533-0.08397-0.056684-0.18442-0.04308-0.08496 0.011507-0.16531 7.392e-4 -0.27278-0.036597-0.3862-0.13413-0.79815 0.00266-1.1434 0.37967-0.27746 0.30298-0.39914 0.62248-0.39967 1.0495-5.15e-4 0.40002 0.08281 0.652 0.29375 0.88842 0.25756 0.28868 0.70902 0.40977 1.1637 0.31215zm-0.65342-1.3389c0.05709-0.25732 0.2618-0.53416 0.46571-0.62978 0.11736-0.055032 0.14545-0.035423 0.16598 0.11582 0.04315 0.31792-0.15741 0.5477-0.51455 0.58949l-0.13746 0.01609zm-7.1043 1.2518 0.08484-0.016767-0.0632-0.12476c-0.13157-0.25972-0.16292-0.40294-0.15904-0.72667 0.0062-0.51788 0.10345-0.96266 0.28449-1.3012 0.09561-0.17877 0.32072-0.41242 0.48557-0.50396l0.11597-0.064395-0.01709 0.091321c-0.07989 0.42707-0.16876 1.7203-0.14782 2.1512 0.0137 0.282 0.05755 0.40021 0.17718 0.4777 0.06242 0.040431 0.14723 0.048051 0.57847 0.051979 0.47872 0.00436 0.51288 0.00124 0.64892-0.059341 0.20923-0.093167 0.3937-0.29476 0.53724-0.58713 0.20259-0.41263 0.29854-0.9534 0.23251-1.3103-0.089607-0.48434-0.32465-0.69044-0.71074-0.62324-0.21504 0.037433-0.36534 0.11921-0.53537 0.29132l-0.14409 0.14584 0.0027-0.1695c0.0015-0.093226 0.01068-0.23602 0.02044-0.31731 0.01444-0.12034 0.02787-0.14918 0.07224-0.15515 0.65771-0.088509 1.1758-0.49712 1.3084-1.0319 0.10657-0.42976-0.044162-0.82469-0.37756-0.98923-0.1809-0.089281-0.48121-0.087407-0.66212 0.004129-0.29996 0.15177-0.55356 0.51773-0.74485 1.0749l-0.07459 0.21727-0.13339 0.00474c-0.07337 0.00261-0.17082 0.023916-0.21656 0.047358-0.22907 0.1174-0.46761 0.51282-0.59652 0.98882-0.03719 0.13732-0.07114 0.25316-0.07545 0.25741-0.0043 0.00425-0.0087-0.10334-0.0097-0.23909-0.0015-0.19396-0.01498-0.27627-0.06299-0.38435-0.19496-0.43887-0.74552-0.55033-1.1265-0.22805-0.11091 0.093812-0.21014 0.26545-0.21136 0.36558-6.02e-4 0.049251 0.01432 0.053091 0.1745 0.044915 0.3147-0.016066 0.45605 0.10527 0.51212 0.43964 0.03054 0.18214 0.02342 0.29638-0.07632 1.2243-0.08807 0.81939 0.03397 1.0181 0.60431 0.98393 0.12131-0.00727 0.25874-0.020755 0.3054-0.029977zm1.411-0.3942c-0.01-0.048132-0.03005-0.2899-0.04458-0.53725-0.0286-0.48697-0.0189-0.54664 0.12642-0.77767 0.06212-0.098756 0.21398-0.24011 0.25796-0.24011 0.01349 0 0.04627 0.032814 0.07284 0.072918 0.04066 0.061363 0.04831 0.13497 0.04829 0.46449 0 0.41912-0.02926 0.59069-0.14106 0.82789-0.06551 0.13898-0.19834 0.27724-0.26633 0.27724-0.01946 0-0.04355-0.039379-0.05354-0.08751zm0.03864-2.6795c1.89e-4 -0.21409 0.14131-0.812 0.22769-0.96419 0.08062-0.14202 0.17479-0.14692 0.22419-0.011663 0.04182 0.11452 0.04811 0.40927 0.0115 0.53947-0.04646 0.16526-0.17601 0.33543-0.32376 0.42527l-0.13966 0.084916v-0.0738zm-12.001 1.9044c0.25385-0.12144 0.50463-0.47521 0.54332-0.76648 0.033729-0.25388 0.00735-0.23712 0.34999-0.22231 0.16701 0.00722 0.32401 0.021688 0.34888 0.032152 0.053662 0.022579 0.066369-0.011256 0.090391-0.24067 0.016631-0.15882 0.015517-0.16233-0.065592-0.20711-0.069319-0.038266-0.17211-0.16437-0.19973-0.24504-0.0040149-0.011724-0.07457 0.015522-0.15679 0.060556-0.19872 0.10883-0.6068 0.23859-0.92608 0.29447l-0.25886 0.045307-0.079006 0.22786c-0.10405 0.30008-0.13057 0.76508-0.052138 0.91412 0.085795 0.16304 0.21655 0.19758 0.4056 0.10714zm17.282-1.5358c0.0097-0.023394-0.29982-0.048692-0.32553-0.026607-0.0097 0.0083-0.02245 0.095923-0.0284 0.19471l-0.01082 0.17961 0.17827-0.16394c0.09804-0.090171 0.18196-0.17287 0.18648-0.18377zm-1.7385 0.069272c0-0.076574-0.01113-0.079455-0.13803-0.035739l-0.09166 0.031576 0.09441 0.033691c0.13144 0.046908 0.13529 0.04607 0.13529-0.029527z"/>
</svg>
