<svg xmlns="http://www.w3.org/2000/svg"
     viewBox="0 0 176 176"
     role="img"
     aria-labelledby="title"
     preserveAspectRatio="xMidYMid meet">
  <title id="title">Reddit</title>
  <g>
<circle fill="#ff5dae" cx="87.8549008" cy="87.8549008" r="87.8549008">

</circle>
            <path d="M146.459359,87.8549008 C146.459359,80.7259847 140.694473,75.0646718 133.66913,75.0646718 C130.210198,75.0646718 127.063939,76.4267481 124.757985,78.6291298 C115.952366,72.3385649 103.894962,68.2503817 90.4754809,67.7266565 L96.3458931,40.2584427 L115.426687,44.346626 C115.63774,49.1695878 119.620397,53.0486718 124.548885,53.0486718 C129.580947,53.0486718 133.66913,48.9604885 133.66913,43.9264733 C133.66913,38.8944122 129.580947,34.806229 124.548885,34.806229 C120.984427,34.806229 117.838168,36.903084 116.370565,39.9438168 L95.0893435,35.4354809 C94.4600916,35.3299542 93.8308397,35.4354809 93.410687,35.7501069 C92.8869618,36.0647328 92.5723359,36.588458 92.4687634,37.2177099 L85.967145,67.830229 C72.3385649,68.2503817 60.0720611,72.3385649 51.160916,78.7346565 C48.8549618,76.5322748 45.7087023,75.1701985 42.249771,75.1701985 C35.120855,75.1701985 29.459542,80.935084 29.459542,87.9604275 C29.459542,93.2015878 32.6038473,97.6043969 37.0086107,99.5976794 C36.7975573,100.854229 36.6939847,102.112733 36.6939847,103.476763 C36.6939847,123.184855 59.6538626,139.22687 87.9604275,139.22687 C116.266992,139.22687 139.22687,123.290382 139.22687,103.476763 C139.22687,102.21826 139.121344,100.854229 138.912244,99.5976794 C143.315053,97.6043969 146.459359,93.0960611 146.459359,87.8549008 Z M58.604458,96.975145 C58.604458,91.943084 62.6926412,87.8549008 67.7266565,87.8549008 C72.7587176,87.8549008 76.8469008,91.943084 76.8469008,96.975145 C76.8469008,102.007206 72.7587176,106.097344 67.7266565,106.097344 C62.6926412,106.200916 58.604458,102.007206 58.604458,96.975145 Z M109.661802,121.193527 C103.371237,127.484092 91.4193588,127.904244 87.9604275,127.904244 C84.3959695,127.904244 72.4440916,127.378565 66.2570992,121.193527 C65.3151756,120.249649 65.3151756,118.782046 66.2570992,117.838168 C67.2009771,116.896244 68.6685802,116.896244 69.612458,117.838168 C73.5970687,121.822779 81.9844885,123.184855 87.9604275,123.184855 C93.9363664,123.184855 102.427359,121.822779 106.306443,117.838168 C107.250321,116.896244 108.717924,116.896244 109.661802,117.838168 C110.500153,118.782046 110.500153,120.249649 109.661802,121.193527 Z M107.983145,106.200916 C102.951084,106.200916 98.8629008,102.112733 98.8629008,97.0806718 C98.8629008,92.0486107 102.951084,87.9604275 107.983145,87.9604275 C113.01716,87.9604275 117.105344,92.0486107 117.105344,97.0806718 C117.105344,102.007206 113.01716,106.200916 107.983145,106.200916 Z" fill="#ffd8ea" fill-rule="nonzero">

</path>
  </g>
</svg>
