<svg width="1024" height="277" viewBox="0 0 1024 277" fill="none" xmlns="http://www.w3.org/2000/svg">
<path fill-rule="evenodd" clip-rule="evenodd" d="M298.815 152.188H278.878C278.791 157.938 279.84 162.904 282.026 167.086C284.212 171.268 287.163 174.709 290.88 177.41C294.596 180.111 298.881 182.093 303.734 183.356C308.587 184.62 313.593 185.251 318.752 185.251C325.135 185.251 330.753 184.511 335.606 183.03C340.459 181.548 344.525 179.479 347.804 176.822C351.083 174.165 353.553 171.006 355.215 167.347C356.876 163.688 357.707 159.724 357.707 155.455C357.707 150.227 356.592 145.936 354.362 142.582C352.132 139.228 349.487 136.549 346.427 134.545C343.366 132.541 340.284 131.082 337.18 130.167C334.076 129.252 331.649 128.62 329.9 128.272C324.042 126.791 319.298 125.571 315.669 124.613C312.04 123.654 309.199 122.696 307.144 121.738C305.089 120.779 303.712 119.734 303.012 118.601C302.313 117.468 301.963 115.987 301.963 114.158C301.963 112.154 302.4 110.498 303.274 109.192C304.149 107.885 305.264 106.796 306.619 105.924C307.974 105.053 309.483 104.443 311.144 104.095C312.806 103.746 314.467 103.572 316.128 103.572C318.664 103.572 321.003 103.79 323.146 104.226C325.288 104.661 327.19 105.402 328.851 106.447C330.513 107.493 331.846 108.93 332.852 110.76C333.857 112.589 334.447 114.898 334.622 117.686H354.559C354.559 112.285 353.532 107.689 351.477 103.899C349.422 100.109 346.646 96.9942 343.148 94.5547C339.65 92.1152 335.65 90.351 331.146 89.2619C326.643 88.1728 321.943 87.6283 317.047 87.6283C312.849 87.6283 308.652 88.1946 304.455 89.3272C300.258 90.4599 296.498 92.2023 293.175 94.5547C289.852 96.9071 287.163 99.8475 285.109 103.376C283.054 106.905 282.026 111.065 282.026 115.857C282.026 120.126 282.835 123.763 284.453 126.769C286.07 129.775 288.191 132.28 290.814 134.283C293.437 136.287 296.41 137.921 299.733 139.184C303.056 140.448 306.466 141.515 309.964 142.386C313.374 143.344 316.74 144.216 320.063 145C323.386 145.784 326.359 146.699 328.982 147.744C331.606 148.79 333.726 150.097 335.344 151.665C336.961 153.233 337.77 155.28 337.77 157.807C337.77 160.159 337.158 162.098 335.934 163.623C334.71 165.147 333.18 166.345 331.343 167.216C329.507 168.088 327.54 168.676 325.441 168.981C323.342 169.286 321.375 169.438 319.539 169.438C316.828 169.438 314.205 169.111 311.669 168.458C309.133 167.805 306.925 166.803 305.045 165.452C303.165 164.102 301.657 162.338 300.52 160.159C299.383 157.981 298.815 155.324 298.815 152.188ZM390.629 107.101V183.16H411.221V107.101H439.29V89.85H362.56V107.101H390.629ZM470.638 132.062V105.794H493.198C497.919 105.794 501.461 106.817 503.822 108.865C506.183 110.912 507.363 114.201 507.363 118.732C507.363 123.436 506.183 126.834 503.822 128.925C501.461 131.016 497.919 132.062 493.198 132.062H470.638ZM450.045 89.85V183.16H470.638V146.699H491.23C496.389 146.699 500.105 147.831 502.379 150.097C504.652 152.362 506.139 155.934 506.838 160.813C507.363 164.559 507.757 168.48 508.019 172.575C508.281 176.669 508.981 180.198 510.117 183.16H530.71C529.748 181.853 529.027 180.263 528.546 178.39C528.065 176.517 527.715 174.535 527.496 172.444C527.278 170.353 527.125 168.306 527.037 166.302C526.95 164.298 526.863 162.555 526.775 161.074C526.6 158.722 526.272 156.369 525.791 154.017C525.31 151.665 524.545 149.508 523.496 147.548C522.447 145.588 521.091 143.889 519.43 142.451C517.769 141.014 515.67 139.947 513.134 139.25V138.988C518.381 136.897 522.163 133.848 524.48 129.84C526.797 125.832 527.956 121.084 527.956 115.595C527.956 112.023 527.322 108.691 526.054 105.598C524.786 102.505 522.95 99.7822 520.545 97.4298C518.14 95.0774 515.255 93.2261 511.888 91.8756C508.522 90.5252 504.74 89.85 500.543 89.85H450.045ZM544.744 89.85V183.16H565.337V89.85H544.744ZM604.03 133.761V105.794H620.031C622.392 105.794 624.666 105.968 626.852 106.317C629.038 106.665 630.962 107.34 632.623 108.342C634.284 109.344 635.618 110.76 636.624 112.589C637.629 114.419 638.132 116.815 638.132 119.777C638.132 122.739 637.629 125.135 636.624 126.965C635.618 128.795 634.284 130.21 632.623 131.212C630.962 132.214 629.038 132.889 626.852 133.238C624.666 133.586 622.392 133.761 620.031 133.761H604.03ZM583.437 89.85V183.16H604.03V149.704H625.672C631.53 149.704 636.514 148.855 640.624 147.156C644.734 145.457 648.078 143.214 650.658 140.426C653.237 137.638 655.117 134.436 656.298 130.82C657.478 127.205 658.069 123.524 658.069 119.777C658.069 115.944 657.478 112.241 656.298 108.669C655.117 105.097 653.237 101.917 650.658 99.1287C648.078 96.3407 644.734 94.0973 640.624 92.3984C636.514 90.6994 631.53 89.85 625.672 89.85H583.437ZM737.946 117.948H750.407C749.707 112.982 748.221 108.604 745.947 104.814C743.674 101.024 740.832 97.8654 737.422 95.3388C734.012 92.8122 730.12 90.8955 725.748 89.5886C721.376 88.2817 716.742 87.6283 711.845 87.6283C704.675 87.6283 698.314 88.9134 692.761 91.4836C687.208 94.0538 682.574 97.5605 678.858 102.004C675.141 106.447 672.322 111.653 670.398 117.621C668.474 123.589 667.512 129.971 667.512 136.767C667.512 143.562 668.408 149.922 670.201 155.847C671.994 161.771 674.682 166.912 678.268 171.268C681.853 175.624 686.356 179.044 691.777 181.527C697.199 184.01 703.538 185.251 710.796 185.251C722.775 185.251 732.219 181.984 739.127 175.45C746.035 168.915 750.101 159.767 751.325 148.006H738.865C738.602 151.839 737.815 155.411 736.504 158.722C735.192 162.033 733.378 164.886 731.06 167.282C728.743 169.678 725.989 171.551 722.797 172.901C719.606 174.252 715.955 174.927 711.845 174.927C706.249 174.927 701.44 173.882 697.417 171.791C693.395 169.7 690.094 166.89 687.514 163.361C684.935 159.833 683.033 155.694 681.809 150.946C680.585 146.198 679.973 141.166 679.973 135.852C679.973 130.973 680.585 126.268 681.809 121.738C683.033 117.207 684.935 113.178 687.514 109.649C690.094 106.12 693.373 103.311 697.352 101.22C701.33 99.1287 706.118 98.0832 711.714 98.0832C718.272 98.0832 723.934 99.7386 728.699 103.049C733.465 106.36 736.547 111.326 737.946 117.948ZM766.802 89.85V183.16H779.263V140.426H828.58V183.16H841.04V89.85H828.58V129.971H779.263V89.85H766.802ZM877.634 144.608L893.505 101.089H893.767L909.376 144.608H877.634ZM886.947 89.85L850.484 183.16H863.206L873.699 155.063H913.31L923.541 183.16H937.313L900.719 89.85H886.947ZM967.743 100.305V183.16H980.203V100.305H1011.42V89.85H936.526V100.305H967.743Z" fill="#ff5dae"/>
<path fill-rule="evenodd" clip-rule="evenodd" d="M92.5535 215.208C92.5535 215.208 91.317 214.982 91.0916 214.921C87.4742 213.946 83.7286 214.907 81.0474 216.224C78.4346 217.509 79.5445 216.975 79.5445 216.975C75.1848 219.153 70.5657 221.163 65.7179 223.005C52.5447 228.011 38.2873 231.587 23.9335 233.926C25.2051 232.012 26.3771 230.178 27.442 228.427C30.3162 223.701 33.9997 216.965 38.2994 208.724C38.2994 208.724 41.8452 202.483 43.2588 199.218C44.6609 195.979 43.042 192.923 41.026 190.947C39.01 188.972 34.914 184.535 34.914 184.535C20.087 168.978 12 149.835 12 129.747C12 82.0488 58.0412 42 116.256 42C174.47 42 220.512 82.0488 220.512 129.747C220.512 174.836 179.37 213.089 125.695 217.14C124.512 217.229 122.132 216.307 122.105 213.395C121.946 195.895 121.784 160.959 121.784 160.959C121.784 159.318 122.917 157.315 124.313 156.485L164.82 109.697C165.269 109.179 164.9 108.373 164.215 108.374L66.2515 108.422C65.5663 108.422 65.1986 109.228 65.6471 109.746L106.064 156.426C107.447 157.289 108.568 159.322 108.568 160.959C108.568 160.959 108.52 195.999 108.634 213.518C108.651 216.2 105.974 217.226 104.665 217.092C100.572 216.673 96.6095 216.005 92.5535 215.208Z" fill="#ff5dae"/>
</svg>

